0
SECTION
2
HEADER
9
$INSUNITS
70
4
9
$ACADVER
1
AC1014
9
$HANDSEED
5
FFFF
0
ENDSEC
0
SECTION
2
TABLES
0
TABLE
2
VPORT
5
8
100
AcDbSymbolTable
0
ENDTAB
0
TABLE
2
LTYPE
5
5
100
AcDbSymbolTable
0
LTYPE
5
14
100
AcDbSymbolTableRecord
100
AcDbLinetypeTableRecord
2
BYBLOCK
70
0
0
LTYPE
5
15
100
AcDbSymbolTableRecord
100
AcDbLinetypeTableRecord
2
BYLAYER
70
0
0
ENDTAB
0
TABLE
2
LAYER
5
2
100
AcDbSymbolTable
70
2
0
LAYER
5
50
100
AcDbSymbolTableRecord
100
AcDbLayerTableRecord
2
0
70
0
6
CONTINUOUS
0
ENDTAB
0
TABLE
2
STYLE
5
3
100
AcDbSymbolTable
70
1
0
STYLE
5
11
100
AcDbSymbolTableRecord
100
AcDbTextStyleTableRecord
2
STANDARD
70
0
0
ENDTAB
0
TABLE
2
VIEW
5
6
100
AcDbSymbolTable
70
0
0
ENDTAB
0
TABLE
2
UCS
5
7
100
AcDbSymbolTable
70
0
0
ENDTAB
0
TABLE
2
APPID
5
9
100
AcDbSymbolTable
70
2
0
APPID
5
12
100
AcDbSymbolTableRecord
100
AcDbRegAppTableRecord
2
ACAD
70
0
0
ENDTAB
0
TABLE
2
DIMSTYLE
5
A
100
AcDbSymbolTable
70
1
0
ENDTAB
0
TABLE
2
BLOCK_RECORD
5
1
100
AcDbSymbolTable
70
1
0
BLOCK_RECORD
5
1F
100
AcDbSymbolTableRecord
100
AcDbBlockTableRecord
2
*MODEL_SPACE
0
BLOCK_RECORD
5
1B
100
AcDbSymbolTableRecord
100
AcDbBlockTableRecord
2
*PAPER_SPACE
0
ENDTAB
0
ENDSEC
0
SECTION
2
BLOCKS
0
BLOCK
5
20
100
AcDbEntity
100
AcDbBlockBegin
2
*MODEL_SPACE
0
ENDBLK
5
21
100
AcDbEntity
100
AcDbBlockEnd
0
BLOCK
5
1C
100
AcDbEntity
100
AcDbBlockBegin
2
*PAPER_SPACE
0
ENDBLK
5
1D
100
AcDbEntity
100
AcDbBlockEnd
0
ENDSEC
0
SECTION
2
ENTITIES
0
LWPOLYLINE
5
100
100
AcDbEntity
8
0
100
AcDbPolyline
90
4
70
1
43
0.0
10
-5
20
5
10
-10
20
5
10
-10
20
10
10
-5
20
10
0
LWPOLYLINE
5
101
100
AcDbEntity
8
0
100
AcDbPolyline
90
4
70
1
43
0.0
10
-4
20
13.75
10
-11
20
13.75
10
-11
20
1.2499999999999998
10
-4
20
1.25
0
LWPOLYLINE
5
102
100
AcDbEntity
8
0
100
AcDbPolyline
90
4
70
1
43
0.0
10
3.0000000000000004
20
1.25
10
3.0000000000000004
20
13.75
10
-4
20
13.75
10
-4
20
1.2499999999999998
0
LWPOLYLINE
5
103
100
AcDbEntity
8
0
100
AcDbPolyline
90
4
70
1
43
0.0
10
-2.9999999999999991
20
5
10
-2.9999999999999991
20
10
10
2.0000000000000009
20
10
10
2.0000000000000009
20
5
0
LWPOLYLINE
5
104
100
AcDbEntity
8
0
100
AcDbPolyline
90
4
70
1
43
0.0
10
10
20
1.25
10
10
20
13.75
10
3.0000000000000004
20
13.75
10
3.0000000000000004
20
1.2499999999999998
0
LWPOLYLINE
5
105
100
AcDbEntity
8
0
100
AcDbPolyline
90
4
70
1
43
0.0
10
4.0000000000000018
20
5
10
4.0000000000000018
20
10
10
9.0000000000000018
20
10
10
9.0000000000000018
20
5
0
LWPOLYLINE
5
106
100
AcDbEntity
8
0
100
AcDbPolyline
90
4
70
1
43
0.0
10
17
20
1.25
10
17
20
13.75
10
10
20
13.75
10
10
20
1.2499999999999998
0
LWPOLYLINE
5
107
100
AcDbEntity
8
0
100
AcDbPolyline
90
4
70
1
43
0.0
10
11
20
5
10
11
20
10
10
16
20
10
10
16
20
5
0
LWPOLYLINE
5
108
100
AcDbEntity
8
0
100
AcDbPolyline
90
4
70
1
43
0.0
10
24.000000000000004
20
1.25
10
24.000000000000004
20
13.75
10
17
20
13.75
10
17
20
1.2499999999999998
0
LWPOLYLINE
5
109
100
AcDbEntity
8
0
100
AcDbPolyline
90
4
70
1
43
0.0
10
18.000000000000004
20
5
10
18.000000000000004
20
10
10
23.000000000000004
20
10
10
23.000000000000004
20
5
0
LWPOLYLINE
5
110
100
AcDbEntity
8
0
100
AcDbPolyline
90
4
70
1
43
0.0
10
31.000000000000007
20
1.25
10
31.000000000000007
20
13.75
10
24.000000000000004
20
13.75
10
24.000000000000004
20
1.2499999999999998
0
LWPOLYLINE
5
111
100
AcDbEntity
8
0
100
AcDbPolyline
90
4
70
1
43
0.0
10
25.000000000000004
20
5
10
25.000000000000004
20
10
10
30.000000000000004
20
10
10
30.000000000000004
20
5
0
LWPOLYLINE
5
112
100
AcDbEntity
8
0
100
AcDbPolyline
90
4
70
1
43
0.0
10
38
20
1.25
10
38
20
13.75
10
31
20
13.75
10
31
20
1.2499999999999998
0
LWPOLYLINE
5
113
100
AcDbEntity
8
0
100
AcDbPolyline
90
4
70
1
43
0.0
10
32
20
5
10
32
20
10
10
37
20
10
10
37
20
5
0
LWPOLYLINE
5
114
100
AcDbEntity
8
0
100
AcDbPolyline
90
4
70
1
43
0.0
10
45
20
1.25
10
45
20
13.75
10
38
20
13.75
10
38
20
1.2499999999999998
0
LWPOLYLINE
5
115
100
AcDbEntity
8
0
100
AcDbPolyline
90
4
70
1
43
0.0
10
39
20
5
10
39
20
10
10
44
20
10
10
44
20
5
0
LWPOLYLINE
5
116
100
AcDbEntity
8
0
100
AcDbPolyline
90
4
70
1
43
0.0
10
52
20
1.25
10
52
20
13.75
10
45
20
13.75
10
45
20
1.2499999999999998
0
LWPOLYLINE
5
117
100
AcDbEntity
8
0
100
AcDbPolyline
90
4
70
1
43
0.0
10
46.000000000000007
20
5
10
46.000000000000007
20
10
10
51.000000000000007
20
10
10
51.000000000000007
20
5
0
LWPOLYLINE
5
118
100
AcDbEntity
8
0
100
AcDbPolyline
90
4
70
1
43
0.0
10
59
20
1.25
10
59
20
13.75
10
52.000000000000014
20
13.75
10
52.000000000000014
20
1.2499999999999998
0
LWPOLYLINE
5
119
100
AcDbEntity
8
0
100
AcDbPolyline
90
4
70
1
43
0.0
10
53.000000000000007
20
5
10
53.000000000000007
20
10
10
58.000000000000007
20
10
10
58.000000000000007
20
5
0
LWPOLYLINE
5
120
100
AcDbEntity
8
0
100
AcDbPolyline
90
4
70
1
43
0.0
10
66
20
1.25
10
66
20
13.75
10
59
20
13.75
10
59
20
1.2499999999999998
0
LWPOLYLINE
5
121
100
AcDbEntity
8
0
100
AcDbPolyline
90
4
70
1
43
0.0
10
60.000000000000007
20
5
10
60.000000000000007
20
10
10
65.000000000000014
20
10
10
65.000000000000014
20
5
0
LWPOLYLINE
5
122
100
AcDbEntity
8
0
100
AcDbPolyline
90
4
70
1
43
0.0
10
73
20
1.25
10
73
20
13.75
10
66.000000000000014
20
13.75
10
66.000000000000014
20
1.2499999999999998
0
LWPOLYLINE
5
123
100
AcDbEntity
8
0
100
AcDbPolyline
90
4
70
1
43
0.0
10
67.000000000000014
20
5
10
67.000000000000014
20
10
10
72.000000000000014
20
10
10
72.000000000000014
20
5
0
LWPOLYLINE
5
124
100
AcDbEntity
8
0
100
AcDbPolyline
90
4
70
1
43
0.0
10
80
20
1.25
10
80
20
13.75
10
73
20
13.75
10
73
20
1.2499999999999998
0
LWPOLYLINE
5
125
100
AcDbEntity
8
0
100
AcDbPolyline
90
4
70
1
43
0.0
10
74
20
5
10
74
20
10
10
79
20
10
10
79
20
5
0
LWPOLYLINE
5
126
100
AcDbEntity
8
0
100
AcDbPolyline
90
4
70
1
43
0.0
10
87.000000000000014
20
1.25
10
87.000000000000014
20
13.75
10
80.000000000000014
20
13.75
10
80.000000000000014
20
1.2499999999999998
0
LWPOLYLINE
5
127
100
AcDbEntity
8
0
100
AcDbPolyline
90
4
70
1
43
0.0
10
81.000000000000014
20
5
10
81.000000000000014
20
10
10
86.000000000000014
20
10
10
86.000000000000014
20
5
0
LWPOLYLINE
5
128
100
AcDbEntity
8
0
100
AcDbPolyline
90
4
70
1
43
0.0
10
94
20
1.25
10
94
20
13.75
10
87.000000000000014
20
13.75
10
87.000000000000014
20
1.2499999999999998
0
LWPOLYLINE
5
129
100
AcDbEntity
8
0
100
AcDbPolyline
90
4
70
1
43
0.0
10
88
20
5
10
88
20
10
10
93
20
10
10
93
20
5
0
LWPOLYLINE
5
130
100
AcDbEntity
8
0
100
AcDbPolyline
90
4
70
1
43
0.0
10
101.00000000000001
20
1.25
10
101.00000000000001
20
13.75
10
94.000000000000028
20
13.75
10
94.000000000000028
20
1.2499999999999998
0
LWPOLYLINE
5
131
100
AcDbEntity
8
0
100
AcDbPolyline
90
4
70
1
43
0.0
10
95.000000000000014
20
5
10
95.000000000000014
20
10
10
100.00000000000001
20
10
10
100.00000000000001
20
5
0
LWPOLYLINE
5
132
100
AcDbEntity
8
0
100
AcDbPolyline
90
4
70
1
43
0.0
10
108
20
1.25
10
108
20
13.75
10
101.00000000000001
20
13.75
10
101.00000000000001
20
1.2499999999999998
0
LWPOLYLINE
5
133
100
AcDbEntity
8
0
100
AcDbPolyline
90
4
70
1
43
0.0
10
102.00000000000001
20
5
10
102.00000000000001
20
10
10
107.00000000000001
20
10
10
107.00000000000001
20
5
0
LWPOLYLINE
5
134
100
AcDbEntity
8
0
100
AcDbPolyline
90
4
70
1
43
0.0
10
115
20
1.25
10
115
20
13.75
10
108
20
13.75
10
108
20
1.2499999999999998
0
LWPOLYLINE
5
135
100
AcDbEntity
8
0
100
AcDbPolyline
90
4
70
1
43
0.0
10
109
20
5
10
109
20
10
10
114
20
10
10
114
20
5
0
LWPOLYLINE
5
136
100
AcDbEntity
8
0
100
AcDbPolyline
90
4
70
1
43
0.0
10
122.00000000000001
20
1.25
10
122.00000000000001
20
13.75
10
115.00000000000001
20
13.75
10
115.00000000000001
20
1.2499999999999998
0
LWPOLYLINE
5
137
100
AcDbEntity
8
0
100
AcDbPolyline
90
4
70
1
43
0.0
10
116.00000000000001
20
5
10
116.00000000000001
20
10
10
121.00000000000001
20
10
10
121.00000000000001
20
5
0
LWPOLYLINE
5
138
100
AcDbEntity
8
0
100
AcDbPolyline
90
4
70
1
43
0.0
10
129
20
1.25
10
129
20
13.75
10
122.00000000000001
20
13.75
10
122.00000000000001
20
1.2499999999999998
0
LWPOLYLINE
5
139
100
AcDbEntity
8
0
100
AcDbPolyline
90
4
70
1
43
0.0
10
123
20
5
10
123
20
10
10
128
20
10
10
128
20
5
0
LWPOLYLINE
5
140
100
AcDbEntity
8
0
100
AcDbPolyline
90
4
70
1
43
0.0
10
136
20
1.25
10
136
20
13.75
10
129.00000000000003
20
13.75
10
129.00000000000003
20
1.2499999999999998
0
LWPOLYLINE
5
141
100
AcDbEntity
8
0
100
AcDbPolyline
90
4
70
1
43
0.0
10
130.00000000000003
20
5
10
130.00000000000003
20
10
10
135.00000000000003
20
10
10
135.00000000000003
20
5
0
LWPOLYLINE
5
142
100
AcDbEntity
8
0
100
AcDbPolyline
90
4
70
1
43
0.0
10
143
20
1.25
10
143
20
13.75
10
136
20
13.75
10
136
20
1.2499999999999998
0
LWPOLYLINE
5
143
100
AcDbEntity
8
0
100
AcDbPolyline
90
4
70
1
43
0.0
10
137
20
5
10
137
20
10
10
142
20
10
10
142
20
5
0
LWPOLYLINE
5
144
100
AcDbEntity
8
0
100
AcDbPolyline
90
4
70
1
43
0.0
10
150.00000000000003
20
1.25
10
150.00000000000003
20
13.75
10
143.00000000000003
20
13.75
10
143.00000000000003
20
1.2499999999999998
0
LWPOLYLINE
5
145
100
AcDbEntity
8
0
100
AcDbPolyline
90
4
70
1
43
0.0
10
144.00000000000003
20
5
10
144.00000000000003
20
10
10
149.00000000000003
20
10
10
149.00000000000003
20
5
0
LWPOLYLINE
5
146
100
AcDbEntity
8
0
100
AcDbPolyline
90
4
70
1
43
0.0
10
157
20
1.25
10
157
20
13.75
10
150.00000000000003
20
13.75
10
150.00000000000003
20
1.2499999999999998
0
LWPOLYLINE
5
147
100
AcDbEntity
8
0
100
AcDbPolyline
90
4
70
1
43
0.0
10
151
20
5
10
151
20
10
10
156
20
10
10
156
20
5
0
LWPOLYLINE
5
148
100
AcDbEntity
8
0
100
AcDbPolyline
90
4
70
1
43
0.0
10
164.00000000000003
20
1.25
10
164.00000000000003
20
13.75
10
157
20
13.75
10
157
20
1.2499999999999998
0
LWPOLYLINE
5
149
100
AcDbEntity
8
0
100
AcDbPolyline
90
4
70
1
43
0.0
10
158
20
5
10
158
20
10
10
163
20
10
10
163
20
5
0
LWPOLYLINE
5
150
100
AcDbEntity
8
0
100
AcDbPolyline
90
4
70
1
43
0.0
10
171
20
1.25
10
171
20
13.75
10
164
20
13.75
10
164
20
1.2499999999999998
0
LWPOLYLINE
5
151
100
AcDbEntity
8
0
100
AcDbPolyline
90
4
70
1
43
0.0
10
165
20
5
10
165
20
10
10
170
20
10
10
170
20
5
0
LWPOLYLINE
5
152
100
AcDbEntity
8
0
100
AcDbPolyline
90
4
70
1
43
0.0
10
178.00000000000006
20
1.25
10
178.00000000000006
20
13.75
10
171
20
13.75
10
171
20
1.2499999999999998
0
LWPOLYLINE
5
153
100
AcDbEntity
8
0
100
AcDbPolyline
90
4
70
1
43
0.0
10
172.00000000000003
20
5
10
172.00000000000003
20
10
10
177.00000000000003
20
10
10
177.00000000000003
20
5
0
LWPOLYLINE
5
154
100
AcDbEntity
8
0
100
AcDbPolyline
90
4
70
1
43
0.0
10
185.00000000000003
20
1.25
10
185.00000000000003
20
13.75
10
178
20
13.75
10
178
20
1.2499999999999998
0
LWPOLYLINE
5
155
100
AcDbEntity
8
0
100
AcDbPolyline
90
4
70
1
43
0.0
10
179.00000000000003
20
5
10
179.00000000000003
20
10
10
184.00000000000003
20
10
10
184.00000000000003
20
5
0
LWPOLYLINE
5
156
100
AcDbEntity
8
0
100
AcDbPolyline
90
4
70
1
43
0.0
10
192.00000000000003
20
1.25
10
192.00000000000003
20
13.75
10
185
20
13.75
10
185
20
1.2499999999999998
0
LWPOLYLINE
5
157
100
AcDbEntity
8
0
100
AcDbPolyline
90
4
70
1
43
0.0
10
186
20
5
10
186
20
10
10
191
20
10
10
191
20
5
0
LWPOLYLINE
5
158
100
AcDbEntity
8
0
100
AcDbPolyline
90
4
70
1
43
0.0
10
199.00000000000003
20
1.25
10
199.00000000000003
20
13.75
10
192
20
13.75
10
192
20
1.2499999999999998
0
LWPOLYLINE
5
159
100
AcDbEntity
8
0
100
AcDbPolyline
90
4
70
1
43
0.0
10
193
20
5
10
193
20
10
10
198
20
10
10
198
20
5
0
LWPOLYLINE
5
160
100
AcDbEntity
8
0
100
AcDbPolyline
90
4
70
1
43
0.0
10
-4
20
21.25
10
-4
20
33.75
10
-11
20
33.75
10
-11
20
21.25
0
LWPOLYLINE
5
161
100
AcDbEntity
8
0
100
AcDbPolyline
90
4
70
1
43
0.0
10
-10
20
25
10
-10
20
30
10
-5
20
30
10
-5
20
25
0
LWPOLYLINE
5
162
100
AcDbEntity
8
0
100
AcDbPolyline
90
4
70
1
43
0.0
10
3.0000000000000004
20
21.25
10
3.0000000000000004
20
33.75
10
-4
20
33.75
10
-4
20
21.25
0
LWPOLYLINE
5
163
100
AcDbEntity
8
0
100
AcDbPolyline
90
4
70
1
43
0.0
10
-2.9999999999999991
20
25
10
-2.9999999999999991
20
30
10
2.0000000000000009
20
30
10
2.0000000000000009
20
25
0
LWPOLYLINE
5
164
100
AcDbEntity
8
0
100
AcDbPolyline
90
4
70
1
43
0.0
10
10
20
21.25
10
10
20
33.75
10
3.0000000000000004
20
33.75
10
3.0000000000000004
20
21.25
0
LWPOLYLINE
5
165
100
AcDbEntity
8
0
100
AcDbPolyline
90
4
70
1
43
0.0
10
4.0000000000000018
20
25
10
4.0000000000000018
20
30
10
9.0000000000000018
20
30
10
9.0000000000000018
20
25
0
LWPOLYLINE
5
166
100
AcDbEntity
8
0
100
AcDbPolyline
90
4
70
1
43
0.0
10
17
20
21.25
10
17
20
33.75
10
10
20
33.75
10
10
20
21.25
0
LWPOLYLINE
5
167
100
AcDbEntity
8
0
100
AcDbPolyline
90
4
70
1
43
0.0
10
11
20
25
10
11
20
30
10
16
20
30
10
16
20
25
0
LWPOLYLINE
5
168
100
AcDbEntity
8
0
100
AcDbPolyline
90
4
70
1
43
0.0
10
24.000000000000004
20
21.25
10
24.000000000000004
20
33.75
10
17
20
33.75
10
17
20
21.25
0
LWPOLYLINE
5
169
100
AcDbEntity
8
0
100
AcDbPolyline
90
4
70
1
43
0.0
10
18.000000000000004
20
25
10
18.000000000000004
20
30
10
23.000000000000004
20
30
10
23.000000000000004
20
25
0
LWPOLYLINE
5
170
100
AcDbEntity
8
0
100
AcDbPolyline
90
4
70
1
43
0.0
10
31.000000000000007
20
21.25
10
31.000000000000007
20
33.75
10
24.000000000000004
20
33.75
10
24.000000000000004
20
21.25
0
LWPOLYLINE
5
171
100
AcDbEntity
8
0
100
AcDbPolyline
90
4
70
1
43
0.0
10
25.000000000000004
20
25
10
25.000000000000004
20
30
10
30.000000000000004
20
30
10
30.000000000000004
20
25
0
LWPOLYLINE
5
172
100
AcDbEntity
8
0
100
AcDbPolyline
90
4
70
1
43
0.0
10
38
20
21.25
10
38
20
33.75
10
31
20
33.75
10
31
20
21.25
0
LWPOLYLINE
5
173
100
AcDbEntity
8
0
100
AcDbPolyline
90
4
70
1
43
0.0
10
32
20
25
10
32
20
30
10
37
20
30
10
37
20
25
0
LWPOLYLINE
5
174
100
AcDbEntity
8
0
100
AcDbPolyline
90
4
70
1
43
0.0
10
45
20
21.25
10
45
20
33.75
10
38
20
33.75
10
38
20
21.25
0
LWPOLYLINE
5
175
100
AcDbEntity
8
0
100
AcDbPolyline
90
4
70
1
43
0.0
10
39
20
25
10
39
20
30
10
44
20
30
10
44
20
25
0
LWPOLYLINE
5
176
100
AcDbEntity
8
0
100
AcDbPolyline
90
4
70
1
43
0.0
10
52
20
21.25
10
52
20
33.75
10
45
20
33.75
10
45
20
21.25
0
LWPOLYLINE
5
177
100
AcDbEntity
8
0
100
AcDbPolyline
90
4
70
1
43
0.0
10
46.000000000000007
20
25
10
46.000000000000007
20
30
10
51.000000000000007
20
30
10
51.000000000000007
20
25
0
LWPOLYLINE
5
178
100
AcDbEntity
8
0
100
AcDbPolyline
90
4
70
1
43
0.0
10
59
20
21.25
10
59
20
33.75
10
52.000000000000014
20
33.75
10
52.000000000000014
20
21.25
0
LWPOLYLINE
5
179
100
AcDbEntity
8
0
100
AcDbPolyline
90
4
70
1
43
0.0
10
53.000000000000007
20
25
10
53.000000000000007
20
30
10
58.000000000000007
20
30
10
58.000000000000007
20
25
0
LWPOLYLINE
5
180
100
AcDbEntity
8
0
100
AcDbPolyline
90
4
70
1
43
0.0
10
66
20
21.25
10
66
20
33.75
10
59
20
33.75
10
59
20
21.25
0
LWPOLYLINE
5
181
100
AcDbEntity
8
0
100
AcDbPolyline
90
4
70
1
43
0.0
10
60.000000000000007
20
25
10
60.000000000000007
20
30
10
65.000000000000014
20
30
10
65.000000000000014
20
25
0
LWPOLYLINE
5
182
100
AcDbEntity
8
0
100
AcDbPolyline
90
4
70
1
43
0.0
10
73
20
21.25
10
73
20
33.75
10
66.000000000000014
20
33.75
10
66.000000000000014
20
21.25
0
LWPOLYLINE
5
183
100
AcDbEntity
8
0
100
AcDbPolyline
90
4
70
1
43
0.0
10
67.000000000000014
20
25
10
67.000000000000014
20
30
10
72.000000000000014
20
30
10
72.000000000000014
20
25
0
LWPOLYLINE
5
184
100
AcDbEntity
8
0
100
AcDbPolyline
90
4
70
1
43
0.0
10
80
20
21.25
10
80
20
33.75
10
73
20
33.75
10
73
20
21.25
0
LWPOLYLINE
5
185
100
AcDbEntity
8
0
100
AcDbPolyline
90
4
70
1
43
0.0
10
74
20
25
10
74
20
30
10
79
20
30
10
79
20
25
0
LWPOLYLINE
5
186
100
AcDbEntity
8
0
100
AcDbPolyline
90
4
70
1
43
0.0
10
87.000000000000014
20
21.25
10
87.000000000000014
20
33.75
10
80.000000000000014
20
33.75
10
80.000000000000014
20
21.25
0
LWPOLYLINE
5
187
100
AcDbEntity
8
0
100
AcDbPolyline
90
4
70
1
43
0.0
10
81.000000000000014
20
25
10
81.000000000000014
20
30
10
86.000000000000014
20
30
10
86.000000000000014
20
25
0
LWPOLYLINE
5
188
100
AcDbEntity
8
0
100
AcDbPolyline
90
4
70
1
43
0.0
10
94
20
21.25
10
94
20
33.75
10
87.000000000000014
20
33.75
10
87.000000000000014
20
21.25
0
LWPOLYLINE
5
189
100
AcDbEntity
8
0
100
AcDbPolyline
90
4
70
1
43
0.0
10
88
20
25
10
88
20
30
10
93
20
30
10
93
20
25
0
LWPOLYLINE
5
190
100
AcDbEntity
8
0
100
AcDbPolyline
90
4
70
1
43
0.0
10
101.00000000000001
20
21.25
10
101.00000000000001
20
33.75
10
94.000000000000028
20
33.75
10
94.000000000000028
20
21.25
0
LWPOLYLINE
5
191
100
AcDbEntity
8
0
100
AcDbPolyline
90
4
70
1
43
0.0
10
95.000000000000014
20
25
10
95.000000000000014
20
30
10
100.00000000000001
20
30
10
100.00000000000001
20
25
0
LWPOLYLINE
5
192
100
AcDbEntity
8
0
100
AcDbPolyline
90
4
70
1
43
0.0
10
108
20
21.25
10
108
20
33.75
10
101.00000000000001
20
33.75
10
101.00000000000001
20
21.25
0
LWPOLYLINE
5
193
100
AcDbEntity
8
0
100
AcDbPolyline
90
4
70
1
43
0.0
10
102.00000000000001
20
25
10
102.00000000000001
20
30
10
107.00000000000001
20
30
10
107.00000000000001
20
25
0
LWPOLYLINE
5
194
100
AcDbEntity
8
0
100
AcDbPolyline
90
4
70
1
43
0.0
10
115
20
21.25
10
115
20
33.75
10
108
20
33.75
10
108
20
21.25
0
LWPOLYLINE
5
195
100
AcDbEntity
8
0
100
AcDbPolyline
90
4
70
1
43
0.0
10
109
20
25
10
109
20
30
10
114
20
30
10
114
20
25
0
LWPOLYLINE
5
196
100
AcDbEntity
8
0
100
AcDbPolyline
90
4
70
1
43
0.0
10
122.00000000000001
20
21.25
10
122.00000000000001
20
33.75
10
115.00000000000001
20
33.75
10
115.00000000000001
20
21.25
0
LWPOLYLINE
5
197
100
AcDbEntity
8
0
100
AcDbPolyline
90
4
70
1
43
0.0
10
116.00000000000001
20
25
10
116.00000000000001
20
30
10
121.00000000000001
20
30
10
121.00000000000001
20
25
0
LWPOLYLINE
5
198
100
AcDbEntity
8
0
100
AcDbPolyline
90
4
70
1
43
0.0
10
129
20
21.25
10
129
20
33.75
10
122.00000000000001
20
33.75
10
122.00000000000001
20
21.25
0
LWPOLYLINE
5
199
100
AcDbEntity
8
0
100
AcDbPolyline
90
4
70
1
43
0.0
10
123
20
25
10
123
20
30
10
128
20
30
10
128
20
25
0
LWPOLYLINE
5
200
100
AcDbEntity
8
0
100
AcDbPolyline
90
4
70
1
43
0.0
10
136
20
21.25
10
136
20
33.75
10
129.00000000000003
20
33.75
10
129.00000000000003
20
21.25
0
LWPOLYLINE
5
201
100
AcDbEntity
8
0
100
AcDbPolyline
90
4
70
1
43
0.0
10
130.00000000000003
20
25
10
130.00000000000003
20
30
10
135.00000000000003
20
30
10
135.00000000000003
20
25
0
LWPOLYLINE
5
202
100
AcDbEntity
8
0
100
AcDbPolyline
90
4
70
1
43
0.0
10
143
20
21.25
10
143
20
33.75
10
136
20
33.75
10
136
20
21.25
0
LWPOLYLINE
5
203
100
AcDbEntity
8
0
100
AcDbPolyline
90
4
70
1
43
0.0
10
137
20
25
10
137
20
30
10
142
20
30
10
142
20
25
0
LWPOLYLINE
5
204
100
AcDbEntity
8
0
100
AcDbPolyline
90
4
70
1
43
0.0
10
150.00000000000003
20
21.25
10
150.00000000000003
20
33.75
10
143.00000000000003
20
33.75
10
143.00000000000003
20
21.25
0
LWPOLYLINE
5
205
100
AcDbEntity
8
0
100
AcDbPolyline
90
4
70
1
43
0.0
10
144.00000000000003
20
25
10
144.00000000000003
20
30
10
149.00000000000003
20
30
10
149.00000000000003
20
25
0
LWPOLYLINE
5
206
100
AcDbEntity
8
0
100
AcDbPolyline
90
4
70
1
43
0.0
10
157
20
21.25
10
157
20
33.75
10
150.00000000000003
20
33.75
10
150.00000000000003
20
21.25
0
LWPOLYLINE
5
207
100
AcDbEntity
8
0
100
AcDbPolyline
90
4
70
1
43
0.0
10
151
20
25
10
151
20
30
10
156
20
30
10
156
20
25
0
LWPOLYLINE
5
208
100
AcDbEntity
8
0
100
AcDbPolyline
90
4
70
1
43
0.0
10
164.00000000000003
20
21.25
10
164.00000000000003
20
33.75
10
157
20
33.75
10
157
20
21.25
0
LWPOLYLINE
5
209
100
AcDbEntity
8
0
100
AcDbPolyline
90
4
70
1
43
0.0
10
158
20
25
10
158
20
30
10
163
20
30
10
163
20
25
0
LWPOLYLINE
5
210
100
AcDbEntity
8
0
100
AcDbPolyline
90
4
70
1
43
0.0
10
171
20
21.25
10
171
20
33.75
10
164
20
33.75
10
164
20
21.25
0
LWPOLYLINE
5
211
100
AcDbEntity
8
0
100
AcDbPolyline
90
4
70
1
43
0.0
10
165
20
25
10
165
20
30
10
170
20
30
10
170
20
25
0
LWPOLYLINE
5
212
100
AcDbEntity
8
0
100
AcDbPolyline
90
4
70
1
43
0.0
10
178.00000000000006
20
21.25
10
178.00000000000006
20
33.75
10
171
20
33.75
10
171
20
21.25
0
LWPOLYLINE
5
213
100
AcDbEntity
8
0
100
AcDbPolyline
90
4
70
1
43
0.0
10
172.00000000000003
20
25
10
172.00000000000003
20
30
10
177.00000000000003
20
30
10
177.00000000000003
20
25
0
LWPOLYLINE
5
214
100
AcDbEntity
8
0
100
AcDbPolyline
90
4
70
1
43
0.0
10
185.00000000000003
20
21.25
10
185.00000000000003
20
33.75
10
178
20
33.75
10
178
20
21.25
0
LWPOLYLINE
5
215
100
AcDbEntity
8
0
100
AcDbPolyline
90
4
70
1
43
0.0
10
179.00000000000003
20
25
10
179.00000000000003
20
30
10
184.00000000000003
20
30
10
184.00000000000003
20
25
0
LWPOLYLINE
5
216
100
AcDbEntity
8
0
100
AcDbPolyline
90
4
70
1
43
0.0
10
192.00000000000003
20
21.25
10
192.00000000000003
20
33.75
10
185
20
33.75
10
185
20
21.25
0
LWPOLYLINE
5
217
100
AcDbEntity
8
0
100
AcDbPolyline
90
4
70
1
43
0.0
10
186
20
25
10
186
20
30
10
191
20
30
10
191
20
25
0
LWPOLYLINE
5
218
100
AcDbEntity
8
0
100
AcDbPolyline
90
4
70
1
43
0.0
10
199.00000000000003
20
21.25
10
199.00000000000003
20
33.75
10
192
20
33.75
10
192
20
21.25
0
LWPOLYLINE
5
219
100
AcDbEntity
8
0
100
AcDbPolyline
90
4
70
1
43
0.0
10
193
20
25
10
193
20
30
10
198
20
30
10
198
20
25
0
LWPOLYLINE
5
220
100
AcDbEntity
8
0
100
AcDbPolyline
90
4
70
1
43
0.0
10
-4
20
41.25
10
-4
20
53.75
10
-11
20
53.75
10
-11
20
41.25
0
LWPOLYLINE
5
221
100
AcDbEntity
8
0
100
AcDbPolyline
90
4
70
1
43
0.0
10
-10
20
45
10
-10
20
50
10
-5
20
50
10
-5
20
45
0
LWPOLYLINE
5
222
100
AcDbEntity
8
0
100
AcDbPolyline
90
4
70
1
43
0.0
10
3.0000000000000004
20
41.25
10
3.0000000000000004
20
53.75
10
-4
20
53.75
10
-4
20
41.25
0
LWPOLYLINE
5
223
100
AcDbEntity
8
0
100
AcDbPolyline
90
4
70
1
43
0.0
10
-2.9999999999999991
20
45
10
-2.9999999999999991
20
50
10
2.0000000000000009
20
50
10
2.0000000000000009
20
45
0
LWPOLYLINE
5
224
100
AcDbEntity
8
0
100
AcDbPolyline
90
4
70
1
43
0.0
10
10
20
41.25
10
10
20
53.75
10
3.0000000000000004
20
53.75
10
3.0000000000000004
20
41.25
0
LWPOLYLINE
5
225
100
AcDbEntity
8
0
100
AcDbPolyline
90
4
70
1
43
0.0
10
4.0000000000000018
20
45
10
4.0000000000000018
20
50
10
9.0000000000000018
20
50
10
9.0000000000000018
20
45
0
LWPOLYLINE
5
226
100
AcDbEntity
8
0
100
AcDbPolyline
90
4
70
1
43
0.0
10
17
20
41.25
10
17
20
53.75
10
10
20
53.75
10
10
20
41.25
0
LWPOLYLINE
5
227
100
AcDbEntity
8
0
100
AcDbPolyline
90
4
70
1
43
0.0
10
11
20
45
10
11
20
50
10
16
20
50
10
16
20
45
0
LWPOLYLINE
5
228
100
AcDbEntity
8
0
100
AcDbPolyline
90
4
70
1
43
0.0
10
24.000000000000004
20
41.25
10
24.000000000000004
20
53.75
10
17
20
53.75
10
17
20
41.25
0
LWPOLYLINE
5
229
100
AcDbEntity
8
0
100
AcDbPolyline
90
4
70
1
43
0.0
10
18.000000000000004
20
45
10
18.000000000000004
20
50
10
23.000000000000004
20
50
10
23.000000000000004
20
45
0
LWPOLYLINE
5
230
100
AcDbEntity
8
0
100
AcDbPolyline
90
4
70
1
43
0.0
10
31.000000000000007
20
41.25
10
31.000000000000007
20
53.75
10
24.000000000000004
20
53.75
10
24.000000000000004
20
41.25
0
LWPOLYLINE
5
231
100
AcDbEntity
8
0
100
AcDbPolyline
90
4
70
1
43
0.0
10
25.000000000000004
20
45
10
25.000000000000004
20
50
10
30.000000000000004
20
50
10
30.000000000000004
20
45
0
LWPOLYLINE
5
232
100
AcDbEntity
8
0
100
AcDbPolyline
90
4
70
1
43
0.0
10
38
20
41.25
10
38
20
53.75
10
31
20
53.75
10
31
20
41.25
0
LWPOLYLINE
5
233
100
AcDbEntity
8
0
100
AcDbPolyline
90
4
70
1
43
0.0
10
32
20
45
10
32
20
50
10
37
20
50
10
37
20
45
0
LWPOLYLINE
5
234
100
AcDbEntity
8
0
100
AcDbPolyline
90
4
70
1
43
0.0
10
45
20
41.25
10
45
20
53.75
10
38
20
53.75
10
38
20
41.25
0
LWPOLYLINE
5
235
100
AcDbEntity
8
0
100
AcDbPolyline
90
4
70
1
43
0.0
10
39
20
45
10
39
20
50
10
44
20
50
10
44
20
45
0
LWPOLYLINE
5
236
100
AcDbEntity
8
0
100
AcDbPolyline
90
4
70
1
43
0.0
10
52
20
41.25
10
52
20
53.75
10
45
20
53.75
10
45
20
41.25
0
LWPOLYLINE
5
237
100
AcDbEntity
8
0
100
AcDbPolyline
90
4
70
1
43
0.0
10
46.000000000000007
20
45
10
46.000000000000007
20
50
10
51.000000000000007
20
50
10
51.000000000000007
20
45
0
LWPOLYLINE
5
238
100
AcDbEntity
8
0
100
AcDbPolyline
90
4
70
1
43
0.0
10
59
20
41.25
10
59
20
53.75
10
52.000000000000014
20
53.75
10
52.000000000000014
20
41.25
0
LWPOLYLINE
5
239
100
AcDbEntity
8
0
100
AcDbPolyline
90
4
70
1
43
0.0
10
53.000000000000007
20
45
10
53.000000000000007
20
50
10
58.000000000000007
20
50
10
58.000000000000007
20
45
0
LWPOLYLINE
5
240
100
AcDbEntity
8
0
100
AcDbPolyline
90
4
70
1
43
0.0
10
66
20
41.25
10
66
20
53.75
10
59
20
53.75
10
59
20
41.25
0
LWPOLYLINE
5
241
100
AcDbEntity
8
0
100
AcDbPolyline
90
4
70
1
43
0.0
10
60.000000000000007
20
45
10
60.000000000000007
20
50
10
65.000000000000014
20
50
10
65.000000000000014
20
45
0
LWPOLYLINE
5
242
100
AcDbEntity
8
0
100
AcDbPolyline
90
4
70
1
43
0.0
10
73
20
41.25
10
73
20
53.75
10
66.000000000000014
20
53.75
10
66.000000000000014
20
41.25
0
LWPOLYLINE
5
243
100
AcDbEntity
8
0
100
AcDbPolyline
90
4
70
1
43
0.0
10
67.000000000000014
20
45
10
67.000000000000014
20
50
10
72.000000000000014
20
50
10
72.000000000000014
20
45
0
LWPOLYLINE
5
244
100
AcDbEntity
8
0
100
AcDbPolyline
90
4
70
1
43
0.0
10
80
20
41.25
10
80
20
53.75
10
73
20
53.75
10
73
20
41.25
0
LWPOLYLINE
5
245
100
AcDbEntity
8
0
100
AcDbPolyline
90
4
70
1
43
0.0
10
74
20
45
10
74
20
50
10
79
20
50
10
79
20
45
0
LWPOLYLINE
5
246
100
AcDbEntity
8
0
100
AcDbPolyline
90
4
70
1
43
0.0
10
87.000000000000014
20
41.25
10
87.000000000000014
20
53.75
10
80.000000000000014
20
53.75
10
80.000000000000014
20
41.25
0
LWPOLYLINE
5
247
100
AcDbEntity
8
0
100
AcDbPolyline
90
4
70
1
43
0.0
10
81.000000000000014
20
45
10
81.000000000000014
20
50
10
86.000000000000014
20
50
10
86.000000000000014
20
45
0
LWPOLYLINE
5
248
100
AcDbEntity
8
0
100
AcDbPolyline
90
4
70
1
43
0.0
10
94
20
41.25
10
94
20
53.75
10
87.000000000000014
20
53.75
10
87.000000000000014
20
41.25
0
LWPOLYLINE
5
249
100
AcDbEntity
8
0
100
AcDbPolyline
90
4
70
1
43
0.0
10
88
20
45
10
88
20
50
10
93
20
50
10
93
20
45
0
LWPOLYLINE
5
250
100
AcDbEntity
8
0
100
AcDbPolyline
90
4
70
1
43
0.0
10
101.00000000000001
20
41.25
10
101.00000000000001
20
53.75
10
94.000000000000028
20
53.75
10
94.000000000000028
20
41.25
0
LWPOLYLINE
5
251
100
AcDbEntity
8
0
100
AcDbPolyline
90
4
70
1
43
0.0
10
95.000000000000014
20
45
10
95.000000000000014
20
50
10
100.00000000000001
20
50
10
100.00000000000001
20
45
0
LWPOLYLINE
5
252
100
AcDbEntity
8
0
100
AcDbPolyline
90
4
70
1
43
0.0
10
108
20
41.25
10
108
20
53.75
10
101.00000000000001
20
53.75
10
101.00000000000001
20
41.25
0
LWPOLYLINE
5
253
100
AcDbEntity
8
0
100
AcDbPolyline
90
4
70
1
43
0.0
10
102.00000000000001
20
45
10
102.00000000000001
20
50
10
107.00000000000001
20
50
10
107.00000000000001
20
45
0
LWPOLYLINE
5
254
100
AcDbEntity
8
0
100
AcDbPolyline
90
4
70
1
43
0.0
10
115
20
41.25
10
115
20
53.75
10
108
20
53.75
10
108
20
41.25
0
LWPOLYLINE
5
255
100
AcDbEntity
8
0
100
AcDbPolyline
90
4
70
1
43
0.0
10
109
20
45
10
109
20
50
10
114
20
50
10
114
20
45
0
LWPOLYLINE
5
256
100
AcDbEntity
8
0
100
AcDbPolyline
90
4
70
1
43
0.0
10
122.00000000000001
20
41.25
10
122.00000000000001
20
53.75
10
115.00000000000001
20
53.75
10
115.00000000000001
20
41.25
0
LWPOLYLINE
5
257
100
AcDbEntity
8
0
100
AcDbPolyline
90
4
70
1
43
0.0
10
116.00000000000001
20
45
10
116.00000000000001
20
50
10
121.00000000000001
20
50
10
121.00000000000001
20
45
0
LWPOLYLINE
5
258
100
AcDbEntity
8
0
100
AcDbPolyline
90
4
70
1
43
0.0
10
129
20
41.25
10
129
20
53.75
10
122.00000000000001
20
53.75
10
122.00000000000001
20
41.25
0
LWPOLYLINE
5
259
100
AcDbEntity
8
0
100
AcDbPolyline
90
4
70
1
43
0.0
10
123
20
45
10
123
20
50
10
128
20
50
10
128
20
45
0
LWPOLYLINE
5
260
100
AcDbEntity
8
0
100
AcDbPolyline
90
4
70
1
43
0.0
10
136
20
41.25
10
136
20
53.75
10
129.00000000000003
20
53.75
10
129.00000000000003
20
41.25
0
LWPOLYLINE
5
261
100
AcDbEntity
8
0
100
AcDbPolyline
90
4
70
1
43
0.0
10
130.00000000000003
20
45
10
130.00000000000003
20
50
10
135.00000000000003
20
50
10
135.00000000000003
20
45
0
LWPOLYLINE
5
262
100
AcDbEntity
8
0
100
AcDbPolyline
90
4
70
1
43
0.0
10
143
20
41.25
10
143
20
53.75
10
136
20
53.75
10
136
20
41.25
0
LWPOLYLINE
5
263
100
AcDbEntity
8
0
100
AcDbPolyline
90
4
70
1
43
0.0
10
137
20
45
10
137
20
50
10
142
20
50
10
142
20
45
0
LWPOLYLINE
5
264
100
AcDbEntity
8
0
100
AcDbPolyline
90
4
70
1
43
0.0
10
150.00000000000003
20
41.25
10
150.00000000000003
20
53.75
10
143.00000000000003
20
53.75
10
143.00000000000003
20
41.25
0
LWPOLYLINE
5
265
100
AcDbEntity
8
0
100
AcDbPolyline
90
4
70
1
43
0.0
10
144.00000000000003
20
45
10
144.00000000000003
20
50
10
149.00000000000003
20
50
10
149.00000000000003
20
45
0
LWPOLYLINE
5
266
100
AcDbEntity
8
0
100
AcDbPolyline
90
4
70
1
43
0.0
10
157
20
41.25
10
157
20
53.75
10
150.00000000000003
20
53.75
10
150.00000000000003
20
41.25
0
LWPOLYLINE
5
267
100
AcDbEntity
8
0
100
AcDbPolyline
90
4
70
1
43
0.0
10
151
20
45
10
151
20
50
10
156
20
50
10
156
20
45
0
LWPOLYLINE
5
268
100
AcDbEntity
8
0
100
AcDbPolyline
90
4
70
1
43
0.0
10
164.00000000000003
20
41.25
10
164.00000000000003
20
53.75
10
157
20
53.75
10
157
20
41.25
0
LWPOLYLINE
5
269
100
AcDbEntity
8
0
100
AcDbPolyline
90
4
70
1
43
0.0
10
158
20
45
10
158
20
50
10
163
20
50
10
163
20
45
0
LWPOLYLINE
5
270
100
AcDbEntity
8
0
100
AcDbPolyline
90
4
70
1
43
0.0
10
171
20
41.25
10
171
20
53.75
10
164
20
53.75
10
164
20
41.25
0
LWPOLYLINE
5
271
100
AcDbEntity
8
0
100
AcDbPolyline
90
4
70
1
43
0.0
10
165
20
45
10
165
20
50
10
170
20
50
10
170
20
45
0
LWPOLYLINE
5
272
100
AcDbEntity
8
0
100
AcDbPolyline
90
4
70
1
43
0.0
10
178.00000000000006
20
41.25
10
178.00000000000006
20
53.75
10
171
20
53.75
10
171
20
41.25
0
LWPOLYLINE
5
273
100
AcDbEntity
8
0
100
AcDbPolyline
90
4
70
1
43
0.0
10
172.00000000000003
20
45
10
172.00000000000003
20
50
10
177.00000000000003
20
50
10
177.00000000000003
20
45
0
LWPOLYLINE
5
274
100
AcDbEntity
8
0
100
AcDbPolyline
90
4
70
1
43
0.0
10
185.00000000000003
20
41.25
10
185.00000000000003
20
53.75
10
178
20
53.75
10
178
20
41.25
0
LWPOLYLINE
5
275
100
AcDbEntity
8
0
100
AcDbPolyline
90
4
70
1
43
0.0
10
179.00000000000003
20
45
10
179.00000000000003
20
50
10
184.00000000000003
20
50
10
184.00000000000003
20
45
0
LWPOLYLINE
5
276
100
AcDbEntity
8
0
100
AcDbPolyline
90
4
70
1
43
0.0
10
192.00000000000003
20
41.25
10
192.00000000000003
20
53.75
10
185
20
53.75
10
185
20
41.25
0
LWPOLYLINE
5
277
100
AcDbEntity
8
0
100
AcDbPolyline
90
4
70
1
43
0.0
10
186
20
45
10
186
20
50
10
191
20
50
10
191
20
45
0
LWPOLYLINE
5
278
100
AcDbEntity
8
0
100
AcDbPolyline
90
4
70
1
43
0.0
10
199.00000000000003
20
41.25
10
199.00000000000003
20
53.75
10
192
20
53.75
10
192
20
41.25
0
LWPOLYLINE
5
279
100
AcDbEntity
8
0
100
AcDbPolyline
90
4
70
1
43
0.0
10
193
20
45
10
193
20
50
10
198
20
50
10
198
20
45
0
LWPOLYLINE
5
280
100
AcDbEntity
8
0
100
AcDbPolyline
90
4
70
1
43
0.0
10
-4
20
61.25
10
-4
20
73.75
10
-11
20
73.75
10
-11
20
61.25
0
LWPOLYLINE
5
281
100
AcDbEntity
8
0
100
AcDbPolyline
90
4
70
1
43
0.0
10
-10
20
65
10
-10
20
70
10
-5
20
70
10
-5
20
65
0
LWPOLYLINE
5
282
100
AcDbEntity
8
0
100
AcDbPolyline
90
4
70
1
43
0.0
10
3.0000000000000004
20
61.25
10
3.0000000000000004
20
73.75
10
-4
20
73.75
10
-4
20
61.25
0
LWPOLYLINE
5
283
100
AcDbEntity
8
0
100
AcDbPolyline
90
4
70
1
43
0.0
10
-2.9999999999999991
20
65
10
-2.9999999999999991
20
70
10
2.0000000000000009
20
70
10
2.0000000000000009
20
65
0
LWPOLYLINE
5
284
100
AcDbEntity
8
0
100
AcDbPolyline
90
4
70
1
43
0.0
10
10
20
61.25
10
10
20
73.75
10
3.0000000000000004
20
73.75
10
3.0000000000000004
20
61.25
0
LWPOLYLINE
5
285
100
AcDbEntity
8
0
100
AcDbPolyline
90
4
70
1
43
0.0
10
4.0000000000000018
20
65
10
4.0000000000000018
20
70
10
9.0000000000000018
20
70
10
9.0000000000000018
20
65
0
LWPOLYLINE
5
286
100
AcDbEntity
8
0
100
AcDbPolyline
90
4
70
1
43
0.0
10
17
20
61.25
10
17
20
73.75
10
10
20
73.75
10
10
20
61.25
0
LWPOLYLINE
5
287
100
AcDbEntity
8
0
100
AcDbPolyline
90
4
70
1
43
0.0
10
11
20
65
10
11
20
70
10
16
20
70
10
16
20
65
0
LWPOLYLINE
5
288
100
AcDbEntity
8
0
100
AcDbPolyline
90
4
70
1
43
0.0
10
24.000000000000004
20
61.25
10
24.000000000000004
20
73.75
10
17
20
73.75
10
17
20
61.25
0
LWPOLYLINE
5
289
100
AcDbEntity
8
0
100
AcDbPolyline
90
4
70
1
43
0.0
10
18.000000000000004
20
65
10
18.000000000000004
20
70
10
23.000000000000004
20
70
10
23.000000000000004
20
65
0
LWPOLYLINE
5
290
100
AcDbEntity
8
0
100
AcDbPolyline
90
4
70
1
43
0.0
10
31.000000000000007
20
61.25
10
31.000000000000007
20
73.75
10
24.000000000000004
20
73.75
10
24.000000000000004
20
61.25
0
LWPOLYLINE
5
291
100
AcDbEntity
8
0
100
AcDbPolyline
90
4
70
1
43
0.0
10
25.000000000000004
20
65
10
25.000000000000004
20
70
10
30.000000000000004
20
70
10
30.000000000000004
20
65
0
LWPOLYLINE
5
292
100
AcDbEntity
8
0
100
AcDbPolyline
90
4
70
1
43
0.0
10
38
20
61.25
10
38
20
73.75
10
31
20
73.75
10
31
20
61.25
0
LWPOLYLINE
5
293
100
AcDbEntity
8
0
100
AcDbPolyline
90
4
70
1
43
0.0
10
32
20
65
10
32
20
70
10
37
20
70
10
37
20
65
0
LWPOLYLINE
5
294
100
AcDbEntity
8
0
100
AcDbPolyline
90
4
70
1
43
0.0
10
45
20
61.25
10
45
20
73.75
10
38
20
73.75
10
38
20
61.25
0
LWPOLYLINE
5
295
100
AcDbEntity
8
0
100
AcDbPolyline
90
4
70
1
43
0.0
10
39
20
65
10
39
20
70
10
44
20
70
10
44
20
65
0
LWPOLYLINE
5
296
100
AcDbEntity
8
0
100
AcDbPolyline
90
4
70
1
43
0.0
10
52
20
61.25
10
52
20
73.75
10
45
20
73.75
10
45
20
61.25
0
LWPOLYLINE
5
297
100
AcDbEntity
8
0
100
AcDbPolyline
90
4
70
1
43
0.0
10
46.000000000000007
20
65
10
46.000000000000007
20
70
10
51.000000000000007
20
70
10
51.000000000000007
20
65
0
LWPOLYLINE
5
298
100
AcDbEntity
8
0
100
AcDbPolyline
90
4
70
1
43
0.0
10
59
20
61.25
10
59
20
73.75
10
52.000000000000014
20
73.75
10
52.000000000000014
20
61.25
0
LWPOLYLINE
5
299
100
AcDbEntity
8
0
100
AcDbPolyline
90
4
70
1
43
0.0
10
53.000000000000007
20
65
10
53.000000000000007
20
70
10
58.000000000000007
20
70
10
58.000000000000007
20
65
0
LWPOLYLINE
5
300
100
AcDbEntity
8
0
100
AcDbPolyline
90
4
70
1
43
0.0
10
66
20
61.25
10
66
20
73.75
10
59
20
73.75
10
59
20
61.25
0
LWPOLYLINE
5
301
100
AcDbEntity
8
0
100
AcDbPolyline
90
4
70
1
43
0.0
10
60.000000000000007
20
65
10
60.000000000000007
20
70
10
65.000000000000014
20
70
10
65.000000000000014
20
65
0
LWPOLYLINE
5
302
100
AcDbEntity
8
0
100
AcDbPolyline
90
4
70
1
43
0.0
10
73
20
61.25
10
73
20
73.75
10
66.000000000000014
20
73.75
10
66.000000000000014
20
61.25
0
LWPOLYLINE
5
303
100
AcDbEntity
8
0
100
AcDbPolyline
90
4
70
1
43
0.0
10
67.000000000000014
20
65
10
67.000000000000014
20
70
10
72.000000000000014
20
70
10
72.000000000000014
20
65
0
LWPOLYLINE
5
304
100
AcDbEntity
8
0
100
AcDbPolyline
90
4
70
1
43
0.0
10
80
20
61.25
10
80
20
73.75
10
73
20
73.75
10
73
20
61.25
0
LWPOLYLINE
5
305
100
AcDbEntity
8
0
100
AcDbPolyline
90
4
70
1
43
0.0
10
74
20
65
10
74
20
70
10
79
20
70
10
79
20
65
0
LWPOLYLINE
5
306
100
AcDbEntity
8
0
100
AcDbPolyline
90
4
70
1
43
0.0
10
87.000000000000014
20
61.25
10
87.000000000000014
20
73.75
10
80.000000000000014
20
73.75
10
80.000000000000014
20
61.25
0
LWPOLYLINE
5
307
100
AcDbEntity
8
0
100
AcDbPolyline
90
4
70
1
43
0.0
10
81.000000000000014
20
65
10
81.000000000000014
20
70
10
86.000000000000014
20
70
10
86.000000000000014
20
65
0
LWPOLYLINE
5
308
100
AcDbEntity
8
0
100
AcDbPolyline
90
4
70
1
43
0.0
10
94
20
61.25
10
94
20
73.75
10
87.000000000000014
20
73.75
10
87.000000000000014
20
61.25
0
LWPOLYLINE
5
309
100
AcDbEntity
8
0
100
AcDbPolyline
90
4
70
1
43
0.0
10
88
20
65
10
88
20
70
10
93
20
70
10
93
20
65
0
LWPOLYLINE
5
310
100
AcDbEntity
8
0
100
AcDbPolyline
90
4
70
1
43
0.0
10
101.00000000000001
20
61.25
10
101.00000000000001
20
73.75
10
94.000000000000028
20
73.75
10
94.000000000000028
20
61.25
0
LWPOLYLINE
5
311
100
AcDbEntity
8
0
100
AcDbPolyline
90
4
70
1
43
0.0
10
95.000000000000014
20
65
10
95.000000000000014
20
70
10
100.00000000000001
20
70
10
100.00000000000001
20
65
0
LWPOLYLINE
5
312
100
AcDbEntity
8
0
100
AcDbPolyline
90
4
70
1
43
0.0
10
108
20
61.25
10
108
20
73.75
10
101.00000000000001
20
73.75
10
101.00000000000001
20
61.25
0
LWPOLYLINE
5
313
100
AcDbEntity
8
0
100
AcDbPolyline
90
4
70
1
43
0.0
10
102.00000000000001
20
65
10
102.00000000000001
20
70
10
107.00000000000001
20
70
10
107.00000000000001
20
65
0
LWPOLYLINE
5
314
100
AcDbEntity
8
0
100
AcDbPolyline
90
4
70
1
43
0.0
10
115
20
61.25
10
115
20
73.75
10
108
20
73.75
10
108
20
61.25
0
LWPOLYLINE
5
315
100
AcDbEntity
8
0
100
AcDbPolyline
90
4
70
1
43
0.0
10
109
20
65
10
109
20
70
10
114
20
70
10
114
20
65
0
LWPOLYLINE
5
316
100
AcDbEntity
8
0
100
AcDbPolyline
90
4
70
1
43
0.0
10
122.00000000000001
20
61.25
10
122.00000000000001
20
73.75
10
115.00000000000001
20
73.75
10
115.00000000000001
20
61.25
0
LWPOLYLINE
5
317
100
AcDbEntity
8
0
100
AcDbPolyline
90
4
70
1
43
0.0
10
116.00000000000001
20
65
10
116.00000000000001
20
70
10
121.00000000000001
20
70
10
121.00000000000001
20
65
0
LWPOLYLINE
5
318
100
AcDbEntity
8
0
100
AcDbPolyline
90
4
70
1
43
0.0
10
129
20
61.25
10
129
20
73.75
10
122.00000000000001
20
73.75
10
122.00000000000001
20
61.25
0
LWPOLYLINE
5
319
100
AcDbEntity
8
0
100
AcDbPolyline
90
4
70
1
43
0.0
10
123
20
65
10
123
20
70
10
128
20
70
10
128
20
65
0
LWPOLYLINE
5
320
100
AcDbEntity
8
0
100
AcDbPolyline
90
4
70
1
43
0.0
10
136
20
61.25
10
136
20
73.75
10
129.00000000000003
20
73.75
10
129.00000000000003
20
61.25
0
LWPOLYLINE
5
321
100
AcDbEntity
8
0
100
AcDbPolyline
90
4
70
1
43
0.0
10
130.00000000000003
20
65
10
130.00000000000003
20
70
10
135.00000000000003
20
70
10
135.00000000000003
20
65
0
LWPOLYLINE
5
322
100
AcDbEntity
8
0
100
AcDbPolyline
90
4
70
1
43
0.0
10
143
20
61.25
10
143
20
73.75
10
136
20
73.75
10
136
20
61.25
0
LWPOLYLINE
5
323
100
AcDbEntity
8
0
100
AcDbPolyline
90
4
70
1
43
0.0
10
137
20
65
10
137
20
70
10
142
20
70
10
142
20
65
0
LWPOLYLINE
5
324
100
AcDbEntity
8
0
100
AcDbPolyline
90
4
70
1
43
0.0
10
150.00000000000003
20
61.25
10
150.00000000000003
20
73.75
10
143.00000000000003
20
73.75
10
143.00000000000003
20
61.25
0
LWPOLYLINE
5
325
100
AcDbEntity
8
0
100
AcDbPolyline
90
4
70
1
43
0.0
10
144.00000000000003
20
65
10
144.00000000000003
20
70
10
149.00000000000003
20
70
10
149.00000000000003
20
65
0
LWPOLYLINE
5
326
100
AcDbEntity
8
0
100
AcDbPolyline
90
4
70
1
43
0.0
10
157
20
61.25
10
157
20
73.75
10
150.00000000000003
20
73.75
10
150.00000000000003
20
61.25
0
LWPOLYLINE
5
327
100
AcDbEntity
8
0
100
AcDbPolyline
90
4
70
1
43
0.0
10
151
20
65
10
151
20
70
10
156
20
70
10
156
20
65
0
LWPOLYLINE
5
328
100
AcDbEntity
8
0
100
AcDbPolyline
90
4
70
1
43
0.0
10
164.00000000000003
20
61.25
10
164.00000000000003
20
73.75
10
157
20
73.75
10
157
20
61.25
0
LWPOLYLINE
5
329
100
AcDbEntity
8
0
100
AcDbPolyline
90
4
70
1
43
0.0
10
158
20
65
10
158
20
70
10
163
20
70
10
163
20
65
0
LWPOLYLINE
5
330
100
AcDbEntity
8
0
100
AcDbPolyline
90
4
70
1
43
0.0
10
171
20
61.25
10
171
20
73.75
10
164
20
73.75
10
164
20
61.25
0
LWPOLYLINE
5
331
100
AcDbEntity
8
0
100
AcDbPolyline
90
4
70
1
43
0.0
10
165
20
65
10
165
20
70
10
170
20
70
10
170
20
65
0
LWPOLYLINE
5
332
100
AcDbEntity
8
0
100
AcDbPolyline
90
4
70
1
43
0.0
10
178.00000000000006
20
61.25
10
178.00000000000006
20
73.75
10
171
20
73.75
10
171
20
61.25
0
LWPOLYLINE
5
333
100
AcDbEntity
8
0
100
AcDbPolyline
90
4
70
1
43
0.0
10
172.00000000000003
20
65
10
172.00000000000003
20
70
10
177.00000000000003
20
70
10
177.00000000000003
20
65
0
LWPOLYLINE
5
334
100
AcDbEntity
8
0
100
AcDbPolyline
90
4
70
1
43
0.0
10
185.00000000000003
20
61.25
10
185.00000000000003
20
73.75
10
178
20
73.75
10
178
20
61.25
0
LWPOLYLINE
5
335
100
AcDbEntity
8
0
100
AcDbPolyline
90
4
70
1
43
0.0
10
179.00000000000003
20
65
10
179.00000000000003
20
70
10
184.00000000000003
20
70
10
184.00000000000003
20
65
0
LWPOLYLINE
5
336
100
AcDbEntity
8
0
100
AcDbPolyline
90
4
70
1
43
0.0
10
192.00000000000003
20
61.25
10
192.00000000000003
20
73.75
10
185
20
73.75
10
185
20
61.25
0
LWPOLYLINE
5
337
100
AcDbEntity
8
0
100
AcDbPolyline
90
4
70
1
43
0.0
10
186
20
65
10
186
20
70
10
191
20
70
10
191
20
65
0
LWPOLYLINE
5
338
100
AcDbEntity
8
0
100
AcDbPolyline
90
4
70
1
43
0.0
10
199.00000000000003
20
61.25
10
199.00000000000003
20
73.75
10
192
20
73.75
10
192
20
61.25
0
LWPOLYLINE
5
339
100
AcDbEntity
8
0
100
AcDbPolyline
90
4
70
1
43
0.0
10
193
20
65
10
193
20
70
10
198
20
70
10
198
20
65
0
LWPOLYLINE
5
340
100
AcDbEntity
8
0
100
AcDbPolyline
90
4
70
1
43
0.0
10
-4
20
81.25
10
-4
20
93.75
10
-11
20
93.75
10
-11
20
81.25
0
LWPOLYLINE
5
341
100
AcDbEntity
8
0
100
AcDbPolyline
90
4
70
1
43
0.0
10
-10
20
85
10
-10
20
90
10
-5
20
90
10
-5
20
85
0
LWPOLYLINE
5
342
100
AcDbEntity
8
0
100
AcDbPolyline
90
4
70
1
43
0.0
10
3.0000000000000004
20
81.25
10
3.0000000000000004
20
93.75
10
-4
20
93.75
10
-4
20
81.25
0
LWPOLYLINE
5
343
100
AcDbEntity
8
0
100
AcDbPolyline
90
4
70
1
43
0.0
10
-2.9999999999999991
20
85
10
-2.9999999999999991
20
90
10
2.0000000000000009
20
90
10
2.0000000000000009
20
85
0
LWPOLYLINE
5
344
100
AcDbEntity
8
0
100
AcDbPolyline
90
4
70
1
43
0.0
10
10
20
81.25
10
10
20
93.75
10
3.0000000000000004
20
93.75
10
3.0000000000000004
20
81.25
0
LWPOLYLINE
5
345
100
AcDbEntity
8
0
100
AcDbPolyline
90
4
70
1
43
0.0
10
4.0000000000000018
20
85
10
4.0000000000000018
20
90
10
9.0000000000000018
20
90
10
9.0000000000000018
20
85
0
LWPOLYLINE
5
346
100
AcDbEntity
8
0
100
AcDbPolyline
90
4
70
1
43
0.0
10
17
20
81.25
10
17
20
93.75
10
10
20
93.75
10
10
20
81.25
0
LWPOLYLINE
5
347
100
AcDbEntity
8
0
100
AcDbPolyline
90
4
70
1
43
0.0
10
11
20
85
10
11
20
90
10
16
20
90
10
16
20
85
0
LWPOLYLINE
5
348
100
AcDbEntity
8
0
100
AcDbPolyline
90
4
70
1
43
0.0
10
24.000000000000004
20
81.25
10
24.000000000000004
20
93.75
10
17
20
93.75
10
17
20
81.25
0
LWPOLYLINE
5
349
100
AcDbEntity
8
0
100
AcDbPolyline
90
4
70
1
43
0.0
10
18.000000000000004
20
85
10
18.000000000000004
20
90
10
23.000000000000004
20
90
10
23.000000000000004
20
85
0
LWPOLYLINE
5
350
100
AcDbEntity
8
0
100
AcDbPolyline
90
4
70
1
43
0.0
10
31.000000000000007
20
81.25
10
31.000000000000007
20
93.75
10
24.000000000000004
20
93.75
10
24.000000000000004
20
81.25
0
LWPOLYLINE
5
351
100
AcDbEntity
8
0
100
AcDbPolyline
90
4
70
1
43
0.0
10
25.000000000000004
20
85
10
25.000000000000004
20
90
10
30.000000000000004
20
90
10
30.000000000000004
20
85
0
LWPOLYLINE
5
352
100
AcDbEntity
8
0
100
AcDbPolyline
90
4
70
1
43
0.0
10
38
20
81.25
10
38
20
93.75
10
31
20
93.75
10
31
20
81.25
0
LWPOLYLINE
5
353
100
AcDbEntity
8
0
100
AcDbPolyline
90
4
70
1
43
0.0
10
32
20
85
10
32
20
90
10
37
20
90
10
37
20
85
0
LWPOLYLINE
5
354
100
AcDbEntity
8
0
100
AcDbPolyline
90
4
70
1
43
0.0
10
45
20
81.25
10
45
20
93.75
10
38
20
93.75
10
38
20
81.25
0
LWPOLYLINE
5
355
100
AcDbEntity
8
0
100
AcDbPolyline
90
4
70
1
43
0.0
10
39
20
85
10
39
20
90
10
44
20
90
10
44
20
85
0
LWPOLYLINE
5
356
100
AcDbEntity
8
0
100
AcDbPolyline
90
4
70
1
43
0.0
10
52
20
81.25
10
52
20
93.75
10
45
20
93.75
10
45
20
81.25
0
LWPOLYLINE
5
357
100
AcDbEntity
8
0
100
AcDbPolyline
90
4
70
1
43
0.0
10
46.000000000000007
20
85
10
46.000000000000007
20
90
10
51.000000000000007
20
90
10
51.000000000000007
20
85
0
LWPOLYLINE
5
358
100
AcDbEntity
8
0
100
AcDbPolyline
90
4
70
1
43
0.0
10
59
20
81.25
10
59
20
93.75
10
52.000000000000014
20
93.75
10
52.000000000000014
20
81.25
0
LWPOLYLINE
5
359
100
AcDbEntity
8
0
100
AcDbPolyline
90
4
70
1
43
0.0
10
53.000000000000007
20
85
10
53.000000000000007
20
90
10
58.000000000000007
20
90
10
58.000000000000007
20
85
0
LWPOLYLINE
5
360
100
AcDbEntity
8
0
100
AcDbPolyline
90
4
70
1
43
0.0
10
66
20
81.25
10
66
20
93.75
10
59
20
93.75
10
59
20
81.25
0
LWPOLYLINE
5
361
100
AcDbEntity
8
0
100
AcDbPolyline
90
4
70
1
43
0.0
10
60.000000000000007
20
85
10
60.000000000000007
20
90
10
65.000000000000014
20
90
10
65.000000000000014
20
85
0
LWPOLYLINE
5
362
100
AcDbEntity
8
0
100
AcDbPolyline
90
4
70
1
43
0.0
10
73
20
81.25
10
73
20
93.75
10
66.000000000000014
20
93.75
10
66.000000000000014
20
81.25
0
LWPOLYLINE
5
363
100
AcDbEntity
8
0
100
AcDbPolyline
90
4
70
1
43
0.0
10
67.000000000000014
20
85
10
67.000000000000014
20
90
10
72.000000000000014
20
90
10
72.000000000000014
20
85
0
LWPOLYLINE
5
364
100
AcDbEntity
8
0
100
AcDbPolyline
90
4
70
1
43
0.0
10
80
20
81.25
10
80
20
93.75
10
73
20
93.75
10
73
20
81.25
0
LWPOLYLINE
5
365
100
AcDbEntity
8
0
100
AcDbPolyline
90
4
70
1
43
0.0
10
74
20
85
10
74
20
90
10
79
20
90
10
79
20
85
0
LWPOLYLINE
5
366
100
AcDbEntity
8
0
100
AcDbPolyline
90
4
70
1
43
0.0
10
87.000000000000014
20
81.25
10
87.000000000000014
20
93.75
10
80.000000000000014
20
93.75
10
80.000000000000014
20
81.25
0
LWPOLYLINE
5
367
100
AcDbEntity
8
0
100
AcDbPolyline
90
4
70
1
43
0.0
10
81.000000000000014
20
85
10
81.000000000000014
20
90
10
86.000000000000014
20
90
10
86.000000000000014
20
85
0
LWPOLYLINE
5
368
100
AcDbEntity
8
0
100
AcDbPolyline
90
4
70
1
43
0.0
10
94
20
81.25
10
94
20
93.75
10
87.000000000000014
20
93.75
10
87.000000000000014
20
81.25
0
LWPOLYLINE
5
369
100
AcDbEntity
8
0
100
AcDbPolyline
90
4
70
1
43
0.0
10
88
20
85
10
88
20
90
10
93
20
90
10
93
20
85
0
LWPOLYLINE
5
370
100
AcDbEntity
8
0
100
AcDbPolyline
90
4
70
1
43
0.0
10
101.00000000000001
20
81.25
10
101.00000000000001
20
93.75
10
94.000000000000028
20
93.75
10
94.000000000000028
20
81.25
0
LWPOLYLINE
5
371
100
AcDbEntity
8
0
100
AcDbPolyline
90
4
70
1
43
0.0
10
95.000000000000014
20
85
10
95.000000000000014
20
90
10
100.00000000000001
20
90
10
100.00000000000001
20
85
0
LWPOLYLINE
5
372
100
AcDbEntity
8
0
100
AcDbPolyline
90
4
70
1
43
0.0
10
108
20
81.25
10
108
20
93.75
10
101.00000000000001
20
93.75
10
101.00000000000001
20
81.25
0
LWPOLYLINE
5
373
100
AcDbEntity
8
0
100
AcDbPolyline
90
4
70
1
43
0.0
10
102.00000000000001
20
85
10
102.00000000000001
20
90
10
107.00000000000001
20
90
10
107.00000000000001
20
85
0
LWPOLYLINE
5
374
100
AcDbEntity
8
0
100
AcDbPolyline
90
4
70
1
43
0.0
10
115
20
81.25
10
115
20
93.75
10
108
20
93.75
10
108
20
81.25
0
LWPOLYLINE
5
375
100
AcDbEntity
8
0
100
AcDbPolyline
90
4
70
1
43
0.0
10
109
20
85
10
109
20
90
10
114
20
90
10
114
20
85
0
LWPOLYLINE
5
376
100
AcDbEntity
8
0
100
AcDbPolyline
90
4
70
1
43
0.0
10
122.00000000000001
20
81.25
10
122.00000000000001
20
93.75
10
115.00000000000001
20
93.75
10
115.00000000000001
20
81.25
0
LWPOLYLINE
5
377
100
AcDbEntity
8
0
100
AcDbPolyline
90
4
70
1
43
0.0
10
116.00000000000001
20
85
10
116.00000000000001
20
90
10
121.00000000000001
20
90
10
121.00000000000001
20
85
0
LWPOLYLINE
5
378
100
AcDbEntity
8
0
100
AcDbPolyline
90
4
70
1
43
0.0
10
129
20
81.25
10
129
20
93.75
10
122.00000000000001
20
93.75
10
122.00000000000001
20
81.25
0
LWPOLYLINE
5
379
100
AcDbEntity
8
0
100
AcDbPolyline
90
4
70
1
43
0.0
10
123
20
85
10
123
20
90
10
128
20
90
10
128
20
85
0
LWPOLYLINE
5
380
100
AcDbEntity
8
0
100
AcDbPolyline
90
4
70
1
43
0.0
10
136
20
81.25
10
136
20
93.75
10
129.00000000000003
20
93.75
10
129.00000000000003
20
81.25
0
LWPOLYLINE
5
381
100
AcDbEntity
8
0
100
AcDbPolyline
90
4
70
1
43
0.0
10
130.00000000000003
20
85
10
130.00000000000003
20
90
10
135.00000000000003
20
90
10
135.00000000000003
20
85
0
LWPOLYLINE
5
382
100
AcDbEntity
8
0
100
AcDbPolyline
90
4
70
1
43
0.0
10
143
20
81.25
10
143
20
93.75
10
136
20
93.75
10
136
20
81.25
0
LWPOLYLINE
5
383
100
AcDbEntity
8
0
100
AcDbPolyline
90
4
70
1
43
0.0
10
137
20
85
10
137
20
90
10
142
20
90
10
142
20
85
0
LWPOLYLINE
5
384
100
AcDbEntity
8
0
100
AcDbPolyline
90
4
70
1
43
0.0
10
150.00000000000003
20
81.25
10
150.00000000000003
20
93.75
10
143.00000000000003
20
93.75
10
143.00000000000003
20
81.25
0
LWPOLYLINE
5
385
100
AcDbEntity
8
0
100
AcDbPolyline
90
4
70
1
43
0.0
10
144.00000000000003
20
85
10
144.00000000000003
20
90
10
149.00000000000003
20
90
10
149.00000000000003
20
85
0
LWPOLYLINE
5
386
100
AcDbEntity
8
0
100
AcDbPolyline
90
4
70
1
43
0.0
10
157
20
81.25
10
157
20
93.75
10
150.00000000000003
20
93.75
10
150.00000000000003
20
81.25
0
LWPOLYLINE
5
387
100
AcDbEntity
8
0
100
AcDbPolyline
90
4
70
1
43
0.0
10
151
20
85
10
151
20
90
10
156
20
90
10
156
20
85
0
LWPOLYLINE
5
388
100
AcDbEntity
8
0
100
AcDbPolyline
90
4
70
1
43
0.0
10
164.00000000000003
20
81.25
10
164.00000000000003
20
93.75
10
157
20
93.75
10
157
20
81.25
0
LWPOLYLINE
5
389
100
AcDbEntity
8
0
100
AcDbPolyline
90
4
70
1
43
0.0
10
158
20
85
10
158
20
90
10
163
20
90
10
163
20
85
0
LWPOLYLINE
5
390
100
AcDbEntity
8
0
100
AcDbPolyline
90
4
70
1
43
0.0
10
171
20
81.25
10
171
20
93.75
10
164
20
93.75
10
164
20
81.25
0
LWPOLYLINE
5
391
100
AcDbEntity
8
0
100
AcDbPolyline
90
4
70
1
43
0.0
10
165
20
85
10
165
20
90
10
170
20
90
10
170
20
85
0
LWPOLYLINE
5
392
100
AcDbEntity
8
0
100
AcDbPolyline
90
4
70
1
43
0.0
10
178.00000000000006
20
81.25
10
178.00000000000006
20
93.75
10
171
20
93.75
10
171
20
81.25
0
LWPOLYLINE
5
393
100
AcDbEntity
8
0
100
AcDbPolyline
90
4
70
1
43
0.0
10
172.00000000000003
20
85
10
172.00000000000003
20
90
10
177.00000000000003
20
90
10
177.00000000000003
20
85
0
LWPOLYLINE
5
394
100
AcDbEntity
8
0
100
AcDbPolyline
90
4
70
1
43
0.0
10
185.00000000000003
20
81.25
10
185.00000000000003
20
93.75
10
178
20
93.75
10
178
20
81.25
0
LWPOLYLINE
5
395
100
AcDbEntity
8
0
100
AcDbPolyline
90
4
70
1
43
0.0
10
179.00000000000003
20
85
10
179.00000000000003
20
90
10
184.00000000000003
20
90
10
184.00000000000003
20
85
0
LWPOLYLINE
5
396
100
AcDbEntity
8
0
100
AcDbPolyline
90
4
70
1
43
0.0
10
192.00000000000003
20
81.25
10
192.00000000000003
20
93.75
10
185
20
93.75
10
185
20
81.25
0
LWPOLYLINE
5
397
100
AcDbEntity
8
0
100
AcDbPolyline
90
4
70
1
43
0.0
10
186
20
85
10
186
20
90
10
191
20
90
10
191
20
85
0
LWPOLYLINE
5
398
100
AcDbEntity
8
0
100
AcDbPolyline
90
4
70
1
43
0.0
10
199.00000000000003
20
81.25
10
199.00000000000003
20
93.75
10
192
20
93.75
10
192
20
81.25
0
LWPOLYLINE
5
399
100
AcDbEntity
8
0
100
AcDbPolyline
90
4
70
1
43
0.0
10
193
20
85
10
193
20
90
10
198
20
90
10
198
20
85
0
LWPOLYLINE
5
400
100
AcDbEntity
8
0
100
AcDbPolyline
90
4
70
1
43
0.0
10
-4
20
101.25
10
-4
20
113.75
10
-11
20
113.75
10
-11
20
101.25
0
LWPOLYLINE
5
401
100
AcDbEntity
8
0
100
AcDbPolyline
90
4
70
1
43
0.0
10
-10
20
105
10
-10
20
110
10
-5
20
110
10
-5
20
105
0
LWPOLYLINE
5
402
100
AcDbEntity
8
0
100
AcDbPolyline
90
4
70
1
43
0.0
10
3.0000000000000004
20
101.25
10
3.0000000000000004
20
113.75
10
-4
20
113.75
10
-4
20
101.25
0
LWPOLYLINE
5
403
100
AcDbEntity
8
0
100
AcDbPolyline
90
4
70
1
43
0.0
10
-2.9999999999999991
20
105
10
-2.9999999999999991
20
110
10
2.0000000000000009
20
110
10
2.0000000000000009
20
105
0
LWPOLYLINE
5
404
100
AcDbEntity
8
0
100
AcDbPolyline
90
4
70
1
43
0.0
10
10
20
101.25
10
10
20
113.75
10
3.0000000000000004
20
113.75
10
3.0000000000000004
20
101.25
0
LWPOLYLINE
5
405
100
AcDbEntity
8
0
100
AcDbPolyline
90
4
70
1
43
0.0
10
4.0000000000000018
20
105
10
4.0000000000000018
20
110
10
9.0000000000000018
20
110
10
9.0000000000000018
20
105
0
LWPOLYLINE
5
406
100
AcDbEntity
8
0
100
AcDbPolyline
90
4
70
1
43
0.0
10
17
20
101.25
10
17
20
113.75
10
10
20
113.75
10
10
20
101.25
0
LWPOLYLINE
5
407
100
AcDbEntity
8
0
100
AcDbPolyline
90
4
70
1
43
0.0
10
11
20
105
10
11
20
110
10
16
20
110
10
16
20
105
0
LWPOLYLINE
5
408
100
AcDbEntity
8
0
100
AcDbPolyline
90
4
70
1
43
0.0
10
24.000000000000004
20
101.25
10
24.000000000000004
20
113.75
10
17
20
113.75
10
17
20
101.25
0
LWPOLYLINE
5
409
100
AcDbEntity
8
0
100
AcDbPolyline
90
4
70
1
43
0.0
10
18.000000000000004
20
105
10
18.000000000000004
20
110
10
23.000000000000004
20
110
10
23.000000000000004
20
105
0
LWPOLYLINE
5
410
100
AcDbEntity
8
0
100
AcDbPolyline
90
4
70
1
43
0.0
10
31.000000000000007
20
101.25
10
31.000000000000007
20
113.75
10
24.000000000000004
20
113.75
10
24.000000000000004
20
101.25
0
LWPOLYLINE
5
411
100
AcDbEntity
8
0
100
AcDbPolyline
90
4
70
1
43
0.0
10
25.000000000000004
20
105
10
25.000000000000004
20
110
10
30.000000000000004
20
110
10
30.000000000000004
20
105
0
LWPOLYLINE
5
412
100
AcDbEntity
8
0
100
AcDbPolyline
90
4
70
1
43
0.0
10
38
20
101.25
10
38
20
113.75
10
31
20
113.75
10
31
20
101.25
0
LWPOLYLINE
5
413
100
AcDbEntity
8
0
100
AcDbPolyline
90
4
70
1
43
0.0
10
32
20
105
10
32
20
110
10
37
20
110
10
37
20
105
0
LWPOLYLINE
5
414
100
AcDbEntity
8
0
100
AcDbPolyline
90
4
70
1
43
0.0
10
45
20
101.25
10
45
20
113.75
10
38
20
113.75
10
38
20
101.25
0
LWPOLYLINE
5
415
100
AcDbEntity
8
0
100
AcDbPolyline
90
4
70
1
43
0.0
10
39
20
105
10
39
20
110
10
44
20
110
10
44
20
105
0
LWPOLYLINE
5
416
100
AcDbEntity
8
0
100
AcDbPolyline
90
4
70
1
43
0.0
10
52
20
101.25
10
52
20
113.75
10
45
20
113.75
10
45
20
101.25
0
LWPOLYLINE
5
417
100
AcDbEntity
8
0
100
AcDbPolyline
90
4
70
1
43
0.0
10
46.000000000000007
20
105
10
46.000000000000007
20
110
10
51.000000000000007
20
110
10
51.000000000000007
20
105
0
LWPOLYLINE
5
418
100
AcDbEntity
8
0
100
AcDbPolyline
90
4
70
1
43
0.0
10
59
20
101.25
10
59
20
113.75
10
52.000000000000014
20
113.75
10
52.000000000000014
20
101.25
0
LWPOLYLINE
5
419
100
AcDbEntity
8
0
100
AcDbPolyline
90
4
70
1
43
0.0
10
53.000000000000007
20
105
10
53.000000000000007
20
110
10
58.000000000000007
20
110
10
58.000000000000007
20
105
0
LWPOLYLINE
5
420
100
AcDbEntity
8
0
100
AcDbPolyline
90
4
70
1
43
0.0
10
66
20
101.25
10
66
20
113.75
10
59
20
113.75
10
59
20
101.25
0
LWPOLYLINE
5
421
100
AcDbEntity
8
0
100
AcDbPolyline
90
4
70
1
43
0.0
10
60.000000000000007
20
105
10
60.000000000000007
20
110
10
65.000000000000014
20
110
10
65.000000000000014
20
105
0
LWPOLYLINE
5
422
100
AcDbEntity
8
0
100
AcDbPolyline
90
4
70
1
43
0.0
10
73
20
101.25
10
73
20
113.75
10
66.000000000000014
20
113.75
10
66.000000000000014
20
101.25
0
LWPOLYLINE
5
423
100
AcDbEntity
8
0
100
AcDbPolyline
90
4
70
1
43
0.0
10
67.000000000000014
20
105
10
67.000000000000014
20
110
10
72.000000000000014
20
110
10
72.000000000000014
20
105
0
LWPOLYLINE
5
424
100
AcDbEntity
8
0
100
AcDbPolyline
90
4
70
1
43
0.0
10
80
20
101.25
10
80
20
113.75
10
73
20
113.75
10
73
20
101.25
0
LWPOLYLINE
5
425
100
AcDbEntity
8
0
100
AcDbPolyline
90
4
70
1
43
0.0
10
74
20
105
10
74
20
110
10
79
20
110
10
79
20
105
0
LWPOLYLINE
5
426
100
AcDbEntity
8
0
100
AcDbPolyline
90
4
70
1
43
0.0
10
87.000000000000014
20
101.25
10
87.000000000000014
20
113.75
10
80.000000000000014
20
113.75
10
80.000000000000014
20
101.25
0
LWPOLYLINE
5
427
100
AcDbEntity
8
0
100
AcDbPolyline
90
4
70
1
43
0.0
10
81.000000000000014
20
105
10
81.000000000000014
20
110
10
86.000000000000014
20
110
10
86.000000000000014
20
105
0
LWPOLYLINE
5
428
100
AcDbEntity
8
0
100
AcDbPolyline
90
4
70
1
43
0.0
10
94
20
101.25
10
94
20
113.75
10
87.000000000000014
20
113.75
10
87.000000000000014
20
101.25
0
LWPOLYLINE
5
429
100
AcDbEntity
8
0
100
AcDbPolyline
90
4
70
1
43
0.0
10
88
20
105
10
88
20
110
10
93
20
110
10
93
20
105
0
LWPOLYLINE
5
430
100
AcDbEntity
8
0
100
AcDbPolyline
90
4
70
1
43
0.0
10
101.00000000000001
20
101.25
10
101.00000000000001
20
113.75
10
94.000000000000028
20
113.75
10
94.000000000000028
20
101.25
0
LWPOLYLINE
5
431
100
AcDbEntity
8
0
100
AcDbPolyline
90
4
70
1
43
0.0
10
95.000000000000014
20
105
10
95.000000000000014
20
110
10
100.00000000000001
20
110
10
100.00000000000001
20
105
0
LWPOLYLINE
5
432
100
AcDbEntity
8
0
100
AcDbPolyline
90
4
70
1
43
0.0
10
108
20
101.25
10
108
20
113.75
10
101.00000000000001
20
113.75
10
101.00000000000001
20
101.25
0
LWPOLYLINE
5
433
100
AcDbEntity
8
0
100
AcDbPolyline
90
4
70
1
43
0.0
10
102.00000000000001
20
105
10
102.00000000000001
20
110
10
107.00000000000001
20
110
10
107.00000000000001
20
105
0
LWPOLYLINE
5
434
100
AcDbEntity
8
0
100
AcDbPolyline
90
4
70
1
43
0.0
10
115
20
101.25
10
115
20
113.75
10
108
20
113.75
10
108
20
101.25
0
LWPOLYLINE
5
435
100
AcDbEntity
8
0
100
AcDbPolyline
90
4
70
1
43
0.0
10
109
20
105
10
109
20
110
10
114
20
110
10
114
20
105
0
LWPOLYLINE
5
436
100
AcDbEntity
8
0
100
AcDbPolyline
90
4
70
1
43
0.0
10
122.00000000000001
20
101.25
10
122.00000000000001
20
113.75
10
115.00000000000001
20
113.75
10
115.00000000000001
20
101.25
0
LWPOLYLINE
5
437
100
AcDbEntity
8
0
100
AcDbPolyline
90
4
70
1
43
0.0
10
116.00000000000001
20
105
10
116.00000000000001
20
110
10
121.00000000000001
20
110
10
121.00000000000001
20
105
0
LWPOLYLINE
5
438
100
AcDbEntity
8
0
100
AcDbPolyline
90
4
70
1
43
0.0
10
129
20
101.25
10
129
20
113.75
10
122.00000000000001
20
113.75
10
122.00000000000001
20
101.25
0
LWPOLYLINE
5
439
100
AcDbEntity
8
0
100
AcDbPolyline
90
4
70
1
43
0.0
10
123
20
105
10
123
20
110
10
128
20
110
10
128
20
105
0
LWPOLYLINE
5
440
100
AcDbEntity
8
0
100
AcDbPolyline
90
4
70
1
43
0.0
10
136
20
101.25
10
136
20
113.75
10
129.00000000000003
20
113.75
10
129.00000000000003
20
101.25
0
LWPOLYLINE
5
441
100
AcDbEntity
8
0
100
AcDbPolyline
90
4
70
1
43
0.0
10
130.00000000000003
20
105
10
130.00000000000003
20
110
10
135.00000000000003
20
110
10
135.00000000000003
20
105
0
LWPOLYLINE
5
442
100
AcDbEntity
8
0
100
AcDbPolyline
90
4
70
1
43
0.0
10
143
20
101.25
10
143
20
113.75
10
136
20
113.75
10
136
20
101.25
0
LWPOLYLINE
5
443
100
AcDbEntity
8
0
100
AcDbPolyline
90
4
70
1
43
0.0
10
137
20
105
10
137
20
110
10
142
20
110
10
142
20
105
0
LWPOLYLINE
5
444
100
AcDbEntity
8
0
100
AcDbPolyline
90
4
70
1
43
0.0
10
150.00000000000003
20
101.25
10
150.00000000000003
20
113.75
10
143.00000000000003
20
113.75
10
143.00000000000003
20
101.25
0
LWPOLYLINE
5
445
100
AcDbEntity
8
0
100
AcDbPolyline
90
4
70
1
43
0.0
10
144.00000000000003
20
105
10
144.00000000000003
20
110
10
149.00000000000003
20
110
10
149.00000000000003
20
105
0
LWPOLYLINE
5
446
100
AcDbEntity
8
0
100
AcDbPolyline
90
4
70
1
43
0.0
10
157
20
101.25
10
157
20
113.75
10
150.00000000000003
20
113.75
10
150.00000000000003
20
101.25
0
LWPOLYLINE
5
447
100
AcDbEntity
8
0
100
AcDbPolyline
90
4
70
1
43
0.0
10
151
20
105
10
151
20
110
10
156
20
110
10
156
20
105
0
LWPOLYLINE
5
448
100
AcDbEntity
8
0
100
AcDbPolyline
90
4
70
1
43
0.0
10
164.00000000000003
20
101.25
10
164.00000000000003
20
113.75
10
157
20
113.75
10
157
20
101.25
0
LWPOLYLINE
5
449
100
AcDbEntity
8
0
100
AcDbPolyline
90
4
70
1
43
0.0
10
158
20
105
10
158
20
110
10
163
20
110
10
163
20
105
0
LWPOLYLINE
5
450
100
AcDbEntity
8
0
100
AcDbPolyline
90
4
70
1
43
0.0
10
171
20
101.25
10
171
20
113.75
10
164
20
113.75
10
164
20
101.25
0
LWPOLYLINE
5
451
100
AcDbEntity
8
0
100
AcDbPolyline
90
4
70
1
43
0.0
10
165
20
105
10
165
20
110
10
170
20
110
10
170
20
105
0
LWPOLYLINE
5
452
100
AcDbEntity
8
0
100
AcDbPolyline
90
4
70
1
43
0.0
10
178.00000000000006
20
101.25
10
178.00000000000006
20
113.75
10
171
20
113.75
10
171
20
101.25
0
LWPOLYLINE
5
453
100
AcDbEntity
8
0
100
AcDbPolyline
90
4
70
1
43
0.0
10
172.00000000000003
20
105
10
172.00000000000003
20
110
10
177.00000000000003
20
110
10
177.00000000000003
20
105
0
LWPOLYLINE
5
454
100
AcDbEntity
8
0
100
AcDbPolyline
90
4
70
1
43
0.0
10
185.00000000000003
20
101.25
10
185.00000000000003
20
113.75
10
178
20
113.75
10
178
20
101.25
0
LWPOLYLINE
5
455
100
AcDbEntity
8
0
100
AcDbPolyline
90
4
70
1
43
0.0
10
179.00000000000003
20
105
10
179.00000000000003
20
110
10
184.00000000000003
20
110
10
184.00000000000003
20
105
0
LWPOLYLINE
5
456
100
AcDbEntity
8
0
100
AcDbPolyline
90
4
70
1
43
0.0
10
192.00000000000003
20
101.25
10
192.00000000000003
20
113.75
10
185
20
113.75
10
185
20
101.25
0
LWPOLYLINE
5
457
100
AcDbEntity
8
0
100
AcDbPolyline
90
4
70
1
43
0.0
10
186
20
105
10
186
20
110
10
191
20
110
10
191
20
105
0
LWPOLYLINE
5
458
100
AcDbEntity
8
0
100
AcDbPolyline
90
4
70
1
43
0.0
10
199.00000000000003
20
101.25
10
199.00000000000003
20
113.75
10
192
20
113.75
10
192
20
101.25
0
LWPOLYLINE
5
459
100
AcDbEntity
8
0
100
AcDbPolyline
90
4
70
1
43
0.0
10
193
20
105
10
193
20
110
10
198
20
110
10
198
20
105
0
LWPOLYLINE
5
460
100
AcDbEntity
8
0
100
AcDbPolyline
90
4
70
1
43
0.0
10
-4
20
121.25
10
-4
20
133.75
10
-11
20
133.75
10
-11
20
121.25
0
LWPOLYLINE
5
461
100
AcDbEntity
8
0
100
AcDbPolyline
90
4
70
1
43
0.0
10
-10
20
125
10
-10
20
130
10
-5
20
130
10
-5
20
125
0
LWPOLYLINE
5
462
100
AcDbEntity
8
0
100
AcDbPolyline
90
4
70
1
43
0.0
10
3.0000000000000004
20
121.25
10
3.0000000000000004
20
133.75
10
-4
20
133.75
10
-4
20
121.25
0
LWPOLYLINE
5
463
100
AcDbEntity
8
0
100
AcDbPolyline
90
4
70
1
43
0.0
10
-2.9999999999999991
20
125
10
-2.9999999999999991
20
130
10
2.0000000000000009
20
130
10
2.0000000000000009
20
125
0
LWPOLYLINE
5
464
100
AcDbEntity
8
0
100
AcDbPolyline
90
4
70
1
43
0.0
10
10
20
121.25
10
10
20
133.75
10
3.0000000000000004
20
133.75
10
3.0000000000000004
20
121.25
0
LWPOLYLINE
5
465
100
AcDbEntity
8
0
100
AcDbPolyline
90
4
70
1
43
0.0
10
4.0000000000000018
20
125
10
4.0000000000000018
20
130
10
9.0000000000000018
20
130
10
9.0000000000000018
20
125
0
LWPOLYLINE
5
466
100
AcDbEntity
8
0
100
AcDbPolyline
90
4
70
1
43
0.0
10
17
20
121.25
10
17
20
133.75
10
10
20
133.75
10
10
20
121.25
0
LWPOLYLINE
5
467
100
AcDbEntity
8
0
100
AcDbPolyline
90
4
70
1
43
0.0
10
11
20
125
10
11
20
130
10
16
20
130
10
16
20
125
0
LWPOLYLINE
5
468
100
AcDbEntity
8
0
100
AcDbPolyline
90
4
70
1
43
0.0
10
24.000000000000004
20
121.25
10
24.000000000000004
20
133.75
10
17
20
133.75
10
17
20
121.25
0
LWPOLYLINE
5
469
100
AcDbEntity
8
0
100
AcDbPolyline
90
4
70
1
43
0.0
10
18.000000000000004
20
125
10
18.000000000000004
20
130
10
23.000000000000004
20
130
10
23.000000000000004
20
125
0
LWPOLYLINE
5
470
100
AcDbEntity
8
0
100
AcDbPolyline
90
4
70
1
43
0.0
10
31.000000000000007
20
121.25
10
31.000000000000007
20
133.75
10
24.000000000000004
20
133.75
10
24.000000000000004
20
121.25
0
LWPOLYLINE
5
471
100
AcDbEntity
8
0
100
AcDbPolyline
90
4
70
1
43
0.0
10
25.000000000000004
20
125
10
25.000000000000004
20
130
10
30.000000000000004
20
130
10
30.000000000000004
20
125
0
LWPOLYLINE
5
472
100
AcDbEntity
8
0
100
AcDbPolyline
90
4
70
1
43
0.0
10
38
20
121.25
10
38
20
133.75
10
31
20
133.75
10
31
20
121.25
0
LWPOLYLINE
5
473
100
AcDbEntity
8
0
100
AcDbPolyline
90
4
70
1
43
0.0
10
32
20
125
10
32
20
130
10
37
20
130
10
37
20
125
0
LWPOLYLINE
5
474
100
AcDbEntity
8
0
100
AcDbPolyline
90
4
70
1
43
0.0
10
45
20
121.25
10
45
20
133.75
10
38
20
133.75
10
38
20
121.25
0
LWPOLYLINE
5
475
100
AcDbEntity
8
0
100
AcDbPolyline
90
4
70
1
43
0.0
10
39
20
125
10
39
20
130
10
44
20
130
10
44
20
125
0
LWPOLYLINE
5
476
100
AcDbEntity
8
0
100
AcDbPolyline
90
4
70
1
43
0.0
10
52
20
121.25
10
52
20
133.75
10
45
20
133.75
10
45
20
121.25
0
LWPOLYLINE
5
477
100
AcDbEntity
8
0
100
AcDbPolyline
90
4
70
1
43
0.0
10
46.000000000000007
20
125
10
46.000000000000007
20
130
10
51.000000000000007
20
130
10
51.000000000000007
20
125
0
LWPOLYLINE
5
478
100
AcDbEntity
8
0
100
AcDbPolyline
90
4
70
1
43
0.0
10
59
20
121.25
10
59
20
133.75
10
52.000000000000014
20
133.75
10
52.000000000000014
20
121.25
0
LWPOLYLINE
5
479
100
AcDbEntity
8
0
100
AcDbPolyline
90
4
70
1
43
0.0
10
53.000000000000007
20
125
10
53.000000000000007
20
130
10
58.000000000000007
20
130
10
58.000000000000007
20
125
0
LWPOLYLINE
5
480
100
AcDbEntity
8
0
100
AcDbPolyline
90
4
70
1
43
0.0
10
66
20
121.25
10
66
20
133.75
10
59
20
133.75
10
59
20
121.25
0
LWPOLYLINE
5
481
100
AcDbEntity
8
0
100
AcDbPolyline
90
4
70
1
43
0.0
10
60.000000000000007
20
125
10
60.000000000000007
20
130
10
65.000000000000014
20
130
10
65.000000000000014
20
125
0
LWPOLYLINE
5
482
100
AcDbEntity
8
0
100
AcDbPolyline
90
4
70
1
43
0.0
10
73
20
121.25
10
73
20
133.75
10
66.000000000000014
20
133.75
10
66.000000000000014
20
121.25
0
LWPOLYLINE
5
483
100
AcDbEntity
8
0
100
AcDbPolyline
90
4
70
1
43
0.0
10
67.000000000000014
20
125
10
67.000000000000014
20
130
10
72.000000000000014
20
130
10
72.000000000000014
20
125
0
LWPOLYLINE
5
484
100
AcDbEntity
8
0
100
AcDbPolyline
90
4
70
1
43
0.0
10
80
20
121.25
10
80
20
133.75
10
73
20
133.75
10
73
20
121.25
0
LWPOLYLINE
5
485
100
AcDbEntity
8
0
100
AcDbPolyline
90
4
70
1
43
0.0
10
74
20
125
10
74
20
130
10
79
20
130
10
79
20
125
0
LWPOLYLINE
5
486
100
AcDbEntity
8
0
100
AcDbPolyline
90
4
70
1
43
0.0
10
87.000000000000014
20
121.25
10
87.000000000000014
20
133.75
10
80.000000000000014
20
133.75
10
80.000000000000014
20
121.25
0
LWPOLYLINE
5
487
100
AcDbEntity
8
0
100
AcDbPolyline
90
4
70
1
43
0.0
10
81.000000000000014
20
125
10
81.000000000000014
20
130
10
86.000000000000014
20
130
10
86.000000000000014
20
125
0
LWPOLYLINE
5
488
100
AcDbEntity
8
0
100
AcDbPolyline
90
4
70
1
43
0.0
10
94
20
121.25
10
94
20
133.75
10
87.000000000000014
20
133.75
10
87.000000000000014
20
121.25
0
LWPOLYLINE
5
489
100
AcDbEntity
8
0
100
AcDbPolyline
90
4
70
1
43
0.0
10
88
20
125
10
88
20
130
10
93
20
130
10
93
20
125
0
LWPOLYLINE
5
490
100
AcDbEntity
8
0
100
AcDbPolyline
90
4
70
1
43
0.0
10
101.00000000000001
20
121.25
10
101.00000000000001
20
133.75
10
94.000000000000028
20
133.75
10
94.000000000000028
20
121.25
0
LWPOLYLINE
5
491
100
AcDbEntity
8
0
100
AcDbPolyline
90
4
70
1
43
0.0
10
95.000000000000014
20
125
10
95.000000000000014
20
130
10
100.00000000000001
20
130
10
100.00000000000001
20
125
0
LWPOLYLINE
5
492
100
AcDbEntity
8
0
100
AcDbPolyline
90
4
70
1
43
0.0
10
108
20
121.25
10
108
20
133.75
10
101.00000000000001
20
133.75
10
101.00000000000001
20
121.25
0
LWPOLYLINE
5
493
100
AcDbEntity
8
0
100
AcDbPolyline
90
4
70
1
43
0.0
10
102.00000000000001
20
125
10
102.00000000000001
20
130
10
107.00000000000001
20
130
10
107.00000000000001
20
125
0
LWPOLYLINE
5
494
100
AcDbEntity
8
0
100
AcDbPolyline
90
4
70
1
43
0.0
10
115
20
121.25
10
115
20
133.75
10
108
20
133.75
10
108
20
121.25
0
LWPOLYLINE
5
495
100
AcDbEntity
8
0
100
AcDbPolyline
90
4
70
1
43
0.0
10
109
20
125
10
109
20
130
10
114
20
130
10
114
20
125
0
LWPOLYLINE
5
496
100
AcDbEntity
8
0
100
AcDbPolyline
90
4
70
1
43
0.0
10
122.00000000000001
20
121.25
10
122.00000000000001
20
133.75
10
115.00000000000001
20
133.75
10
115.00000000000001
20
121.25
0
LWPOLYLINE
5
497
100
AcDbEntity
8
0
100
AcDbPolyline
90
4
70
1
43
0.0
10
116.00000000000001
20
125
10
116.00000000000001
20
130
10
121.00000000000001
20
130
10
121.00000000000001
20
125
0
LWPOLYLINE
5
498
100
AcDbEntity
8
0
100
AcDbPolyline
90
4
70
1
43
0.0
10
129
20
121.25
10
129
20
133.75
10
122.00000000000001
20
133.75
10
122.00000000000001
20
121.25
0
LWPOLYLINE
5
499
100
AcDbEntity
8
0
100
AcDbPolyline
90
4
70
1
43
0.0
10
123
20
125
10
123
20
130
10
128
20
130
10
128
20
125
0
LWPOLYLINE
5
500
100
AcDbEntity
8
0
100
AcDbPolyline
90
4
70
1
43
0.0
10
136
20
121.25
10
136
20
133.75
10
129.00000000000003
20
133.75
10
129.00000000000003
20
121.25
0
LWPOLYLINE
5
501
100
AcDbEntity
8
0
100
AcDbPolyline
90
4
70
1
43
0.0
10
130.00000000000003
20
125
10
130.00000000000003
20
130
10
135.00000000000003
20
130
10
135.00000000000003
20
125
0
LWPOLYLINE
5
502
100
AcDbEntity
8
0
100
AcDbPolyline
90
4
70
1
43
0.0
10
143
20
121.25
10
143
20
133.75
10
136
20
133.75
10
136
20
121.25
0
LWPOLYLINE
5
503
100
AcDbEntity
8
0
100
AcDbPolyline
90
4
70
1
43
0.0
10
137
20
125
10
137
20
130
10
142
20
130
10
142
20
125
0
LWPOLYLINE
5
504
100
AcDbEntity
8
0
100
AcDbPolyline
90
4
70
1
43
0.0
10
150.00000000000003
20
121.25
10
150.00000000000003
20
133.75
10
143.00000000000003
20
133.75
10
143.00000000000003
20
121.25
0
LWPOLYLINE
5
505
100
AcDbEntity
8
0
100
AcDbPolyline
90
4
70
1
43
0.0
10
144.00000000000003
20
125
10
144.00000000000003
20
130
10
149.00000000000003
20
130
10
149.00000000000003
20
125
0
LWPOLYLINE
5
506
100
AcDbEntity
8
0
100
AcDbPolyline
90
4
70
1
43
0.0
10
157
20
121.25
10
157
20
133.75
10
150.00000000000003
20
133.75
10
150.00000000000003
20
121.25
0
LWPOLYLINE
5
507
100
AcDbEntity
8
0
100
AcDbPolyline
90
4
70
1
43
0.0
10
151
20
125
10
151
20
130
10
156
20
130
10
156
20
125
0
LWPOLYLINE
5
508
100
AcDbEntity
8
0
100
AcDbPolyline
90
4
70
1
43
0.0
10
164.00000000000003
20
121.25
10
164.00000000000003
20
133.75
10
157
20
133.75
10
157
20
121.25
0
LWPOLYLINE
5
509
100
AcDbEntity
8
0
100
AcDbPolyline
90
4
70
1
43
0.0
10
158
20
125
10
158
20
130
10
163
20
130
10
163
20
125
0
LWPOLYLINE
5
510
100
AcDbEntity
8
0
100
AcDbPolyline
90
4
70
1
43
0.0
10
171
20
121.25
10
171
20
133.75
10
164
20
133.75
10
164
20
121.25
0
LWPOLYLINE
5
511
100
AcDbEntity
8
0
100
AcDbPolyline
90
4
70
1
43
0.0
10
165
20
125
10
165
20
130
10
170
20
130
10
170
20
125
0
LWPOLYLINE
5
512
100
AcDbEntity
8
0
100
AcDbPolyline
90
4
70
1
43
0.0
10
178.00000000000006
20
121.25
10
178.00000000000006
20
133.75
10
171
20
133.75
10
171
20
121.25
0
LWPOLYLINE
5
513
100
AcDbEntity
8
0
100
AcDbPolyline
90
4
70
1
43
0.0
10
172.00000000000003
20
125
10
172.00000000000003
20
130
10
177.00000000000003
20
130
10
177.00000000000003
20
125
0
LWPOLYLINE
5
514
100
AcDbEntity
8
0
100
AcDbPolyline
90
4
70
1
43
0.0
10
185.00000000000003
20
121.25
10
185.00000000000003
20
133.75
10
178
20
133.75
10
178
20
121.25
0
LWPOLYLINE
5
515
100
AcDbEntity
8
0
100
AcDbPolyline
90
4
70
1
43
0.0
10
179.00000000000003
20
125
10
179.00000000000003
20
130
10
184.00000000000003
20
130
10
184.00000000000003
20
125
0
LWPOLYLINE
5
516
100
AcDbEntity
8
0
100
AcDbPolyline
90
4
70
1
43
0.0
10
192.00000000000003
20
121.25
10
192.00000000000003
20
133.75
10
185
20
133.75
10
185
20
121.25
0
LWPOLYLINE
5
517
100
AcDbEntity
8
0
100
AcDbPolyline
90
4
70
1
43
0.0
10
186
20
125
10
186
20
130
10
191
20
130
10
191
20
125
0
LWPOLYLINE
5
518
100
AcDbEntity
8
0
100
AcDbPolyline
90
4
70
1
43
0.0
10
199.00000000000003
20
121.25
10
199.00000000000003
20
133.75
10
192
20
133.75
10
192
20
121.25
0
LWPOLYLINE
5
519
100
AcDbEntity
8
0
100
AcDbPolyline
90
4
70
1
43
0.0
10
193
20
125
10
193
20
130
10
198
20
130
10
198
20
125
0
LWPOLYLINE
5
520
100
AcDbEntity
8
0
100
AcDbPolyline
90
4
70
1
43
0.0
10
-4
20
141.25
10
-4
20
153.75
10
-11
20
153.75
10
-11
20
141.25
0
LWPOLYLINE
5
521
100
AcDbEntity
8
0
100
AcDbPolyline
90
4
70
1
43
0.0
10
-10
20
145
10
-10
20
150
10
-5
20
150
10
-5
20
145
0
LWPOLYLINE
5
522
100
AcDbEntity
8
0
100
AcDbPolyline
90
4
70
1
43
0.0
10
3.0000000000000004
20
141.25
10
3.0000000000000004
20
153.75
10
-4
20
153.75
10
-4
20
141.25
0
LWPOLYLINE
5
523
100
AcDbEntity
8
0
100
AcDbPolyline
90
4
70
1
43
0.0
10
-2.9999999999999991
20
145
10
-2.9999999999999991
20
150
10
2.0000000000000009
20
150
10
2.0000000000000009
20
145
0
LWPOLYLINE
5
524
100
AcDbEntity
8
0
100
AcDbPolyline
90
4
70
1
43
0.0
10
10
20
141.25
10
10
20
153.75
10
3.0000000000000004
20
153.75
10
3.0000000000000004
20
141.25
0
LWPOLYLINE
5
525
100
AcDbEntity
8
0
100
AcDbPolyline
90
4
70
1
43
0.0
10
4.0000000000000018
20
145
10
4.0000000000000018
20
150
10
9.0000000000000018
20
150
10
9.0000000000000018
20
145
0
LWPOLYLINE
5
526
100
AcDbEntity
8
0
100
AcDbPolyline
90
4
70
1
43
0.0
10
17
20
141.25
10
17
20
153.75
10
10
20
153.75
10
10
20
141.25
0
LWPOLYLINE
5
527
100
AcDbEntity
8
0
100
AcDbPolyline
90
4
70
1
43
0.0
10
11
20
145
10
11
20
150
10
16
20
150
10
16
20
145
0
LWPOLYLINE
5
528
100
AcDbEntity
8
0
100
AcDbPolyline
90
4
70
1
43
0.0
10
24.000000000000004
20
141.25
10
24.000000000000004
20
153.75
10
17
20
153.75
10
17
20
141.25
0
LWPOLYLINE
5
529
100
AcDbEntity
8
0
100
AcDbPolyline
90
4
70
1
43
0.0
10
18.000000000000004
20
145
10
18.000000000000004
20
150
10
23.000000000000004
20
150
10
23.000000000000004
20
145
0
LWPOLYLINE
5
530
100
AcDbEntity
8
0
100
AcDbPolyline
90
4
70
1
43
0.0
10
31.000000000000007
20
141.25
10
31.000000000000007
20
153.75
10
24.000000000000004
20
153.75
10
24.000000000000004
20
141.25
0
LWPOLYLINE
5
531
100
AcDbEntity
8
0
100
AcDbPolyline
90
4
70
1
43
0.0
10
25.000000000000004
20
145
10
25.000000000000004
20
150
10
30.000000000000004
20
150
10
30.000000000000004
20
145
0
LWPOLYLINE
5
532
100
AcDbEntity
8
0
100
AcDbPolyline
90
4
70
1
43
0.0
10
38
20
141.25
10
38
20
153.75
10
31
20
153.75
10
31
20
141.25
0
LWPOLYLINE
5
533
100
AcDbEntity
8
0
100
AcDbPolyline
90
4
70
1
43
0.0
10
32
20
145
10
32
20
150
10
37
20
150
10
37
20
145
0
LWPOLYLINE
5
534
100
AcDbEntity
8
0
100
AcDbPolyline
90
4
70
1
43
0.0
10
45
20
141.25
10
45
20
153.75
10
38
20
153.75
10
38
20
141.25
0
LWPOLYLINE
5
535
100
AcDbEntity
8
0
100
AcDbPolyline
90
4
70
1
43
0.0
10
39
20
145
10
39
20
150
10
44
20
150
10
44
20
145
0
LWPOLYLINE
5
536
100
AcDbEntity
8
0
100
AcDbPolyline
90
4
70
1
43
0.0
10
52
20
141.25
10
52
20
153.75
10
45
20
153.75
10
45
20
141.25
0
LWPOLYLINE
5
537
100
AcDbEntity
8
0
100
AcDbPolyline
90
4
70
1
43
0.0
10
46.000000000000007
20
145
10
46.000000000000007
20
150
10
51.000000000000007
20
150
10
51.000000000000007
20
145
0
LWPOLYLINE
5
538
100
AcDbEntity
8
0
100
AcDbPolyline
90
4
70
1
43
0.0
10
59
20
141.25
10
59
20
153.75
10
52.000000000000014
20
153.75
10
52.000000000000014
20
141.25
0
LWPOLYLINE
5
539
100
AcDbEntity
8
0
100
AcDbPolyline
90
4
70
1
43
0.0
10
53.000000000000007
20
145
10
53.000000000000007
20
150
10
58.000000000000007
20
150
10
58.000000000000007
20
145
0
LWPOLYLINE
5
540
100
AcDbEntity
8
0
100
AcDbPolyline
90
4
70
1
43
0.0
10
66
20
141.25
10
66
20
153.75
10
59
20
153.75
10
59
20
141.25
0
LWPOLYLINE
5
541
100
AcDbEntity
8
0
100
AcDbPolyline
90
4
70
1
43
0.0
10
60.000000000000007
20
145
10
60.000000000000007
20
150
10
65.000000000000014
20
150
10
65.000000000000014
20
145
0
LWPOLYLINE
5
542
100
AcDbEntity
8
0
100
AcDbPolyline
90
4
70
1
43
0.0
10
73
20
141.25
10
73
20
153.75
10
66.000000000000014
20
153.75
10
66.000000000000014
20
141.25
0
LWPOLYLINE
5
543
100
AcDbEntity
8
0
100
AcDbPolyline
90
4
70
1
43
0.0
10
67.000000000000014
20
145
10
67.000000000000014
20
150
10
72.000000000000014
20
150
10
72.000000000000014
20
145
0
LWPOLYLINE
5
544
100
AcDbEntity
8
0
100
AcDbPolyline
90
4
70
1
43
0.0
10
80
20
141.25
10
80
20
153.75
10
73
20
153.75
10
73
20
141.25
0
LWPOLYLINE
5
545
100
AcDbEntity
8
0
100
AcDbPolyline
90
4
70
1
43
0.0
10
74
20
145
10
74
20
150
10
79
20
150
10
79
20
145
0
LWPOLYLINE
5
546
100
AcDbEntity
8
0
100
AcDbPolyline
90
4
70
1
43
0.0
10
87.000000000000014
20
141.25
10
87.000000000000014
20
153.75
10
80.000000000000014
20
153.75
10
80.000000000000014
20
141.25
0
LWPOLYLINE
5
547
100
AcDbEntity
8
0
100
AcDbPolyline
90
4
70
1
43
0.0
10
81.000000000000014
20
145
10
81.000000000000014
20
150
10
86.000000000000014
20
150
10
86.000000000000014
20
145
0
LWPOLYLINE
5
548
100
AcDbEntity
8
0
100
AcDbPolyline
90
4
70
1
43
0.0
10
94
20
141.25
10
94
20
153.75
10
87.000000000000014
20
153.75
10
87.000000000000014
20
141.25
0
LWPOLYLINE
5
549
100
AcDbEntity
8
0
100
AcDbPolyline
90
4
70
1
43
0.0
10
88
20
145
10
88
20
150
10
93
20
150
10
93
20
145
0
LWPOLYLINE
5
550
100
AcDbEntity
8
0
100
AcDbPolyline
90
4
70
1
43
0.0
10
101.00000000000001
20
141.25
10
101.00000000000001
20
153.75
10
94.000000000000028
20
153.75
10
94.000000000000028
20
141.25
0
LWPOLYLINE
5
551
100
AcDbEntity
8
0
100
AcDbPolyline
90
4
70
1
43
0.0
10
95.000000000000014
20
145
10
95.000000000000014
20
150
10
100.00000000000001
20
150
10
100.00000000000001
20
145
0
LWPOLYLINE
5
552
100
AcDbEntity
8
0
100
AcDbPolyline
90
4
70
1
43
0.0
10
108
20
141.25
10
108
20
153.75
10
101.00000000000001
20
153.75
10
101.00000000000001
20
141.25
0
LWPOLYLINE
5
553
100
AcDbEntity
8
0
100
AcDbPolyline
90
4
70
1
43
0.0
10
102.00000000000001
20
145
10
102.00000000000001
20
150
10
107.00000000000001
20
150
10
107.00000000000001
20
145
0
LWPOLYLINE
5
554
100
AcDbEntity
8
0
100
AcDbPolyline
90
4
70
1
43
0.0
10
115
20
141.25
10
115
20
153.75
10
108
20
153.75
10
108
20
141.25
0
LWPOLYLINE
5
555
100
AcDbEntity
8
0
100
AcDbPolyline
90
4
70
1
43
0.0
10
109
20
145
10
109
20
150
10
114
20
150
10
114
20
145
0
LWPOLYLINE
5
556
100
AcDbEntity
8
0
100
AcDbPolyline
90
4
70
1
43
0.0
10
122.00000000000001
20
141.25
10
122.00000000000001
20
153.75
10
115.00000000000001
20
153.75
10
115.00000000000001
20
141.25
0
LWPOLYLINE
5
557
100
AcDbEntity
8
0
100
AcDbPolyline
90
4
70
1
43
0.0
10
116.00000000000001
20
145
10
116.00000000000001
20
150
10
121.00000000000001
20
150
10
121.00000000000001
20
145
0
LWPOLYLINE
5
558
100
AcDbEntity
8
0
100
AcDbPolyline
90
4
70
1
43
0.0
10
129
20
141.25
10
129
20
153.75
10
122.00000000000001
20
153.75
10
122.00000000000001
20
141.25
0
LWPOLYLINE
5
559
100
AcDbEntity
8
0
100
AcDbPolyline
90
4
70
1
43
0.0
10
123
20
145
10
123
20
150
10
128
20
150
10
128
20
145
0
LWPOLYLINE
5
560
100
AcDbEntity
8
0
100
AcDbPolyline
90
4
70
1
43
0.0
10
136
20
141.25
10
136
20
153.75
10
129.00000000000003
20
153.75
10
129.00000000000003
20
141.25
0
LWPOLYLINE
5
561
100
AcDbEntity
8
0
100
AcDbPolyline
90
4
70
1
43
0.0
10
130.00000000000003
20
145
10
130.00000000000003
20
150
10
135.00000000000003
20
150
10
135.00000000000003
20
145
0
LWPOLYLINE
5
562
100
AcDbEntity
8
0
100
AcDbPolyline
90
4
70
1
43
0.0
10
143
20
141.25
10
143
20
153.75
10
136
20
153.75
10
136
20
141.25
0
LWPOLYLINE
5
563
100
AcDbEntity
8
0
100
AcDbPolyline
90
4
70
1
43
0.0
10
137
20
145
10
137
20
150
10
142
20
150
10
142
20
145
0
LWPOLYLINE
5
564
100
AcDbEntity
8
0
100
AcDbPolyline
90
4
70
1
43
0.0
10
150.00000000000003
20
141.25
10
150.00000000000003
20
153.75
10
143.00000000000003
20
153.75
10
143.00000000000003
20
141.25
0
LWPOLYLINE
5
565
100
AcDbEntity
8
0
100
AcDbPolyline
90
4
70
1
43
0.0
10
144.00000000000003
20
145
10
144.00000000000003
20
150
10
149.00000000000003
20
150
10
149.00000000000003
20
145
0
LWPOLYLINE
5
566
100
AcDbEntity
8
0
100
AcDbPolyline
90
4
70
1
43
0.0
10
157
20
141.25
10
157
20
153.75
10
150.00000000000003
20
153.75
10
150.00000000000003
20
141.25
0
LWPOLYLINE
5
567
100
AcDbEntity
8
0
100
AcDbPolyline
90
4
70
1
43
0.0
10
151
20
145
10
151
20
150
10
156
20
150
10
156
20
145
0
LWPOLYLINE
5
568
100
AcDbEntity
8
0
100
AcDbPolyline
90
4
70
1
43
0.0
10
164.00000000000003
20
141.25
10
164.00000000000003
20
153.75
10
157
20
153.75
10
157
20
141.25
0
LWPOLYLINE
5
569
100
AcDbEntity
8
0
100
AcDbPolyline
90
4
70
1
43
0.0
10
158
20
145
10
158
20
150
10
163
20
150
10
163
20
145
0
LWPOLYLINE
5
570
100
AcDbEntity
8
0
100
AcDbPolyline
90
4
70
1
43
0.0
10
171
20
141.25
10
171
20
153.75
10
164
20
153.75
10
164
20
141.25
0
LWPOLYLINE
5
571
100
AcDbEntity
8
0
100
AcDbPolyline
90
4
70
1
43
0.0
10
165
20
145
10
165
20
150
10
170
20
150
10
170
20
145
0
LWPOLYLINE
5
572
100
AcDbEntity
8
0
100
AcDbPolyline
90
4
70
1
43
0.0
10
178.00000000000006
20
141.25
10
178.00000000000006
20
153.75
10
171
20
153.75
10
171
20
141.25
0
LWPOLYLINE
5
573
100
AcDbEntity
8
0
100
AcDbPolyline
90
4
70
1
43
0.0
10
172.00000000000003
20
145
10
172.00000000000003
20
150
10
177.00000000000003
20
150
10
177.00000000000003
20
145
0
LWPOLYLINE
5
574
100
AcDbEntity
8
0
100
AcDbPolyline
90
4
70
1
43
0.0
10
185.00000000000003
20
141.25
10
185.00000000000003
20
153.75
10
178
20
153.75
10
178
20
141.25
0
LWPOLYLINE
5
575
100
AcDbEntity
8
0
100
AcDbPolyline
90
4
70
1
43
0.0
10
179.00000000000003
20
145
10
179.00000000000003
20
150
10
184.00000000000003
20
150
10
184.00000000000003
20
145
0
LWPOLYLINE
5
576
100
AcDbEntity
8
0
100
AcDbPolyline
90
4
70
1
43
0.0
10
192.00000000000003
20
141.25
10
192.00000000000003
20
153.75
10
185
20
153.75
10
185
20
141.25
0
LWPOLYLINE
5
577
100
AcDbEntity
8
0
100
AcDbPolyline
90
4
70
1
43
0.0
10
186
20
145
10
186
20
150
10
191
20
150
10
191
20
145
0
LWPOLYLINE
5
578
100
AcDbEntity
8
0
100
AcDbPolyline
90
4
70
1
43
0.0
10
199.00000000000003
20
141.25
10
199.00000000000003
20
153.75
10
192
20
153.75
10
192
20
141.25
0
LWPOLYLINE
5
579
100
AcDbEntity
8
0
100
AcDbPolyline
90
4
70
1
43
0.0
10
193
20
145
10
193
20
150
10
198
20
150
10
198
20
145
0
LWPOLYLINE
5
580
100
AcDbEntity
8
0
100
AcDbPolyline
90
4
70
1
43
0.0
10
-4
20
161.25
10
-4
20
173.75
10
-11
20
173.75
10
-11
20
161.25
0
LWPOLYLINE
5
581
100
AcDbEntity
8
0
100
AcDbPolyline
90
4
70
1
43
0.0
10
-10
20
165
10
-10
20
170
10
-5
20
170
10
-5
20
165
0
LWPOLYLINE
5
582
100
AcDbEntity
8
0
100
AcDbPolyline
90
4
70
1
43
0.0
10
3.0000000000000004
20
161.25
10
3.0000000000000004
20
173.75
10
-4
20
173.75
10
-4
20
161.25
0
LWPOLYLINE
5
583
100
AcDbEntity
8
0
100
AcDbPolyline
90
4
70
1
43
0.0
10
-2.9999999999999991
20
165
10
-2.9999999999999991
20
170
10
2.0000000000000009
20
170
10
2.0000000000000009
20
165
0
LWPOLYLINE
5
584
100
AcDbEntity
8
0
100
AcDbPolyline
90
4
70
1
43
0.0
10
10
20
161.25
10
10
20
173.75
10
3.0000000000000004
20
173.75
10
3.0000000000000004
20
161.25
0
LWPOLYLINE
5
585
100
AcDbEntity
8
0
100
AcDbPolyline
90
4
70
1
43
0.0
10
4.0000000000000018
20
165
10
4.0000000000000018
20
170
10
9.0000000000000018
20
170
10
9.0000000000000018
20
165
0
LWPOLYLINE
5
586
100
AcDbEntity
8
0
100
AcDbPolyline
90
4
70
1
43
0.0
10
17
20
161.25
10
17
20
173.75
10
10
20
173.75
10
10
20
161.25
0
LWPOLYLINE
5
587
100
AcDbEntity
8
0
100
AcDbPolyline
90
4
70
1
43
0.0
10
11
20
165
10
11
20
170
10
16
20
170
10
16
20
165
0
LWPOLYLINE
5
588
100
AcDbEntity
8
0
100
AcDbPolyline
90
4
70
1
43
0.0
10
24.000000000000004
20
161.25
10
24.000000000000004
20
173.75
10
17
20
173.75
10
17
20
161.25
0
LWPOLYLINE
5
589
100
AcDbEntity
8
0
100
AcDbPolyline
90
4
70
1
43
0.0
10
18.000000000000004
20
165
10
18.000000000000004
20
170
10
23.000000000000004
20
170
10
23.000000000000004
20
165
0
LWPOLYLINE
5
590
100
AcDbEntity
8
0
100
AcDbPolyline
90
4
70
1
43
0.0
10
31.000000000000007
20
161.25
10
31.000000000000007
20
173.75
10
24.000000000000004
20
173.75
10
24.000000000000004
20
161.25
0
LWPOLYLINE
5
591
100
AcDbEntity
8
0
100
AcDbPolyline
90
4
70
1
43
0.0
10
25.000000000000004
20
165
10
25.000000000000004
20
170
10
30.000000000000004
20
170
10
30.000000000000004
20
165
0
LWPOLYLINE
5
592
100
AcDbEntity
8
0
100
AcDbPolyline
90
4
70
1
43
0.0
10
38
20
161.25
10
38
20
173.75
10
31
20
173.75
10
31
20
161.25
0
LWPOLYLINE
5
593
100
AcDbEntity
8
0
100
AcDbPolyline
90
4
70
1
43
0.0
10
32
20
165
10
32
20
170
10
37
20
170
10
37
20
165
0
LWPOLYLINE
5
594
100
AcDbEntity
8
0
100
AcDbPolyline
90
4
70
1
43
0.0
10
45
20
161.25
10
45
20
173.75
10
38
20
173.75
10
38
20
161.25
0
LWPOLYLINE
5
595
100
AcDbEntity
8
0
100
AcDbPolyline
90
4
70
1
43
0.0
10
39
20
165
10
39
20
170
10
44
20
170
10
44
20
165
0
LWPOLYLINE
5
596
100
AcDbEntity
8
0
100
AcDbPolyline
90
4
70
1
43
0.0
10
52
20
161.25
10
52
20
173.75
10
45
20
173.75
10
45
20
161.25
0
LWPOLYLINE
5
597
100
AcDbEntity
8
0
100
AcDbPolyline
90
4
70
1
43
0.0
10
46.000000000000007
20
165
10
46.000000000000007
20
170
10
51.000000000000007
20
170
10
51.000000000000007
20
165
0
LWPOLYLINE
5
598
100
AcDbEntity
8
0
100
AcDbPolyline
90
4
70
1
43
0.0
10
59
20
161.25
10
59
20
173.75
10
52.000000000000014
20
173.75
10
52.000000000000014
20
161.25
0
LWPOLYLINE
5
599
100
AcDbEntity
8
0
100
AcDbPolyline
90
4
70
1
43
0.0
10
53.000000000000007
20
165
10
53.000000000000007
20
170
10
58.000000000000007
20
170
10
58.000000000000007
20
165
0
LWPOLYLINE
5
600
100
AcDbEntity
8
0
100
AcDbPolyline
90
4
70
1
43
0.0
10
66
20
161.25
10
66
20
173.75
10
59
20
173.75
10
59
20
161.25
0
LWPOLYLINE
5
601
100
AcDbEntity
8
0
100
AcDbPolyline
90
4
70
1
43
0.0
10
60.000000000000007
20
165
10
60.000000000000007
20
170
10
65.000000000000014
20
170
10
65.000000000000014
20
165
0
LWPOLYLINE
5
602
100
AcDbEntity
8
0
100
AcDbPolyline
90
4
70
1
43
0.0
10
73
20
161.25
10
73
20
173.75
10
66.000000000000014
20
173.75
10
66.000000000000014
20
161.25
0
LWPOLYLINE
5
603
100
AcDbEntity
8
0
100
AcDbPolyline
90
4
70
1
43
0.0
10
67.000000000000014
20
165
10
67.000000000000014
20
170
10
72.000000000000014
20
170
10
72.000000000000014
20
165
0
LWPOLYLINE
5
604
100
AcDbEntity
8
0
100
AcDbPolyline
90
4
70
1
43
0.0
10
80
20
161.25
10
80
20
173.75
10
73
20
173.75
10
73
20
161.25
0
LWPOLYLINE
5
605
100
AcDbEntity
8
0
100
AcDbPolyline
90
4
70
1
43
0.0
10
74
20
165
10
74
20
170
10
79
20
170
10
79
20
165
0
LWPOLYLINE
5
606
100
AcDbEntity
8
0
100
AcDbPolyline
90
4
70
1
43
0.0
10
87.000000000000014
20
161.25
10
87.000000000000014
20
173.75
10
80.000000000000014
20
173.75
10
80.000000000000014
20
161.25
0
LWPOLYLINE
5
607
100
AcDbEntity
8
0
100
AcDbPolyline
90
4
70
1
43
0.0
10
81.000000000000014
20
165
10
81.000000000000014
20
170
10
86.000000000000014
20
170
10
86.000000000000014
20
165
0
LWPOLYLINE
5
608
100
AcDbEntity
8
0
100
AcDbPolyline
90
4
70
1
43
0.0
10
94
20
161.25
10
94
20
173.75
10
87.000000000000014
20
173.75
10
87.000000000000014
20
161.25
0
LWPOLYLINE
5
609
100
AcDbEntity
8
0
100
AcDbPolyline
90
4
70
1
43
0.0
10
88
20
165
10
88
20
170
10
93
20
170
10
93
20
165
0
LWPOLYLINE
5
610
100
AcDbEntity
8
0
100
AcDbPolyline
90
4
70
1
43
0.0
10
101.00000000000001
20
161.25
10
101.00000000000001
20
173.75
10
94.000000000000028
20
173.75
10
94.000000000000028
20
161.25
0
LWPOLYLINE
5
611
100
AcDbEntity
8
0
100
AcDbPolyline
90
4
70
1
43
0.0
10
95.000000000000014
20
165
10
95.000000000000014
20
170
10
100.00000000000001
20
170
10
100.00000000000001
20
165
0
LWPOLYLINE
5
612
100
AcDbEntity
8
0
100
AcDbPolyline
90
4
70
1
43
0.0
10
108
20
161.25
10
108
20
173.75
10
101.00000000000001
20
173.75
10
101.00000000000001
20
161.25
0
LWPOLYLINE
5
613
100
AcDbEntity
8
0
100
AcDbPolyline
90
4
70
1
43
0.0
10
102.00000000000001
20
165
10
102.00000000000001
20
170
10
107.00000000000001
20
170
10
107.00000000000001
20
165
0
LWPOLYLINE
5
614
100
AcDbEntity
8
0
100
AcDbPolyline
90
4
70
1
43
0.0
10
115
20
161.25
10
115
20
173.75
10
108
20
173.75
10
108
20
161.25
0
LWPOLYLINE
5
615
100
AcDbEntity
8
0
100
AcDbPolyline
90
4
70
1
43
0.0
10
109
20
165
10
109
20
170
10
114
20
170
10
114
20
165
0
LWPOLYLINE
5
616
100
AcDbEntity
8
0
100
AcDbPolyline
90
4
70
1
43
0.0
10
122.00000000000001
20
161.25
10
122.00000000000001
20
173.75
10
115.00000000000001
20
173.75
10
115.00000000000001
20
161.25
0
LWPOLYLINE
5
617
100
AcDbEntity
8
0
100
AcDbPolyline
90
4
70
1
43
0.0
10
116.00000000000001
20
165
10
116.00000000000001
20
170
10
121.00000000000001
20
170
10
121.00000000000001
20
165
0
LWPOLYLINE
5
618
100
AcDbEntity
8
0
100
AcDbPolyline
90
4
70
1
43
0.0
10
129
20
161.25
10
129
20
173.75
10
122.00000000000001
20
173.75
10
122.00000000000001
20
161.25
0
LWPOLYLINE
5
619
100
AcDbEntity
8
0
100
AcDbPolyline
90
4
70
1
43
0.0
10
123
20
165
10
123
20
170
10
128
20
170
10
128
20
165
0
LWPOLYLINE
5
620
100
AcDbEntity
8
0
100
AcDbPolyline
90
4
70
1
43
0.0
10
136
20
161.25
10
136
20
173.75
10
129.00000000000003
20
173.75
10
129.00000000000003
20
161.25
0
LWPOLYLINE
5
621
100
AcDbEntity
8
0
100
AcDbPolyline
90
4
70
1
43
0.0
10
130.00000000000003
20
165
10
130.00000000000003
20
170
10
135.00000000000003
20
170
10
135.00000000000003
20
165
0
LWPOLYLINE
5
622
100
AcDbEntity
8
0
100
AcDbPolyline
90
4
70
1
43
0.0
10
143
20
161.25
10
143
20
173.75
10
136
20
173.75
10
136
20
161.25
0
LWPOLYLINE
5
623
100
AcDbEntity
8
0
100
AcDbPolyline
90
4
70
1
43
0.0
10
137
20
165
10
137
20
170
10
142
20
170
10
142
20
165
0
LWPOLYLINE
5
624
100
AcDbEntity
8
0
100
AcDbPolyline
90
4
70
1
43
0.0
10
150.00000000000003
20
161.25
10
150.00000000000003
20
173.75
10
143.00000000000003
20
173.75
10
143.00000000000003
20
161.25
0
LWPOLYLINE
5
625
100
AcDbEntity
8
0
100
AcDbPolyline
90
4
70
1
43
0.0
10
144.00000000000003
20
165
10
144.00000000000003
20
170
10
149.00000000000003
20
170
10
149.00000000000003
20
165
0
LWPOLYLINE
5
626
100
AcDbEntity
8
0
100
AcDbPolyline
90
4
70
1
43
0.0
10
157
20
161.25
10
157
20
173.75
10
150.00000000000003
20
173.75
10
150.00000000000003
20
161.25
0
LWPOLYLINE
5
627
100
AcDbEntity
8
0
100
AcDbPolyline
90
4
70
1
43
0.0
10
151
20
165
10
151
20
170
10
156
20
170
10
156
20
165
0
LWPOLYLINE
5
628
100
AcDbEntity
8
0
100
AcDbPolyline
90
4
70
1
43
0.0
10
164.00000000000003
20
161.25
10
164.00000000000003
20
173.75
10
157
20
173.75
10
157
20
161.25
0
LWPOLYLINE
5
629
100
AcDbEntity
8
0
100
AcDbPolyline
90
4
70
1
43
0.0
10
158
20
165
10
158
20
170
10
163
20
170
10
163
20
165
0
LWPOLYLINE
5
630
100
AcDbEntity
8
0
100
AcDbPolyline
90
4
70
1
43
0.0
10
171
20
161.25
10
171
20
173.75
10
164
20
173.75
10
164
20
161.25
0
LWPOLYLINE
5
631
100
AcDbEntity
8
0
100
AcDbPolyline
90
4
70
1
43
0.0
10
165
20
165
10
165
20
170
10
170
20
170
10
170
20
165
0
LWPOLYLINE
5
632
100
AcDbEntity
8
0
100
AcDbPolyline
90
4
70
1
43
0.0
10
178.00000000000006
20
161.25
10
178.00000000000006
20
173.75
10
171
20
173.75
10
171
20
161.25
0
LWPOLYLINE
5
633
100
AcDbEntity
8
0
100
AcDbPolyline
90
4
70
1
43
0.0
10
172.00000000000003
20
165
10
172.00000000000003
20
170
10
177.00000000000003
20
170
10
177.00000000000003
20
165
0
LWPOLYLINE
5
634
100
AcDbEntity
8
0
100
AcDbPolyline
90
4
70
1
43
0.0
10
185.00000000000003
20
161.25
10
185.00000000000003
20
173.75
10
178
20
173.75
10
178
20
161.25
0
LWPOLYLINE
5
635
100
AcDbEntity
8
0
100
AcDbPolyline
90
4
70
1
43
0.0
10
179.00000000000003
20
165
10
179.00000000000003
20
170
10
184.00000000000003
20
170
10
184.00000000000003
20
165
0
LWPOLYLINE
5
636
100
AcDbEntity
8
0
100
AcDbPolyline
90
4
70
1
43
0.0
10
192.00000000000003
20
161.25
10
192.00000000000003
20
173.75
10
185
20
173.75
10
185
20
161.25
0
LWPOLYLINE
5
637
100
AcDbEntity
8
0
100
AcDbPolyline
90
4
70
1
43
0.0
10
186
20
165
10
186
20
170
10
191
20
170
10
191
20
165
0
LWPOLYLINE
5
638
100
AcDbEntity
8
0
100
AcDbPolyline
90
4
70
1
43
0.0
10
199.00000000000003
20
161.25
10
199.00000000000003
20
173.75
10
192
20
173.75
10
192
20
161.25
0
LWPOLYLINE
5
639
100
AcDbEntity
8
0
100
AcDbPolyline
90
4
70
1
43
0.0
10
193
20
165
10
193
20
170
10
198
20
170
10
198
20
165
0
LWPOLYLINE
5
640
100
AcDbEntity
8
0
100
AcDbPolyline
90
4
70
1
43
0.0
10
-4
20
181.25
10
-4
20
193.75
10
-11
20
193.75
10
-11
20
181.25
0
LWPOLYLINE
5
641
100
AcDbEntity
8
0
100
AcDbPolyline
90
4
70
1
43
0.0
10
-10
20
185
10
-10
20
190
10
-5
20
190
10
-5
20
185
0
LWPOLYLINE
5
642
100
AcDbEntity
8
0
100
AcDbPolyline
90
4
70
1
43
0.0
10
3.0000000000000004
20
181.25
10
3.0000000000000004
20
193.75
10
-4
20
193.75
10
-4
20
181.25
0
LWPOLYLINE
5
643
100
AcDbEntity
8
0
100
AcDbPolyline
90
4
70
1
43
0.0
10
-2.9999999999999991
20
185
10
-2.9999999999999991
20
190
10
2.0000000000000009
20
190
10
2.0000000000000009
20
185
0
LWPOLYLINE
5
644
100
AcDbEntity
8
0
100
AcDbPolyline
90
4
70
1
43
0.0
10
10
20
181.25
10
10
20
193.75
10
3.0000000000000004
20
193.75
10
3.0000000000000004
20
181.25
0
LWPOLYLINE
5
645
100
AcDbEntity
8
0
100
AcDbPolyline
90
4
70
1
43
0.0
10
4.0000000000000018
20
185
10
4.0000000000000018
20
190
10
9.0000000000000018
20
190
10
9.0000000000000018
20
185
0
LWPOLYLINE
5
646
100
AcDbEntity
8
0
100
AcDbPolyline
90
4
70
1
43
0.0
10
17
20
181.25
10
17
20
193.75
10
10
20
193.75
10
10
20
181.25
0
LWPOLYLINE
5
647
100
AcDbEntity
8
0
100
AcDbPolyline
90
4
70
1
43
0.0
10
11
20
185
10
11
20
190
10
16
20
190
10
16
20
185
0
LWPOLYLINE
5
648
100
AcDbEntity
8
0
100
AcDbPolyline
90
4
70
1
43
0.0
10
24.000000000000004
20
181.25
10
24.000000000000004
20
193.75
10
17
20
193.75
10
17
20
181.25
0
LWPOLYLINE
5
649
100
AcDbEntity
8
0
100
AcDbPolyline
90
4
70
1
43
0.0
10
18.000000000000004
20
185
10
18.000000000000004
20
190
10
23.000000000000004
20
190
10
23.000000000000004
20
185
0
LWPOLYLINE
5
650
100
AcDbEntity
8
0
100
AcDbPolyline
90
4
70
1
43
0.0
10
31.000000000000007
20
181.25
10
31.000000000000007
20
193.75
10
24.000000000000004
20
193.75
10
24.000000000000004
20
181.25
0
LWPOLYLINE
5
651
100
AcDbEntity
8
0
100
AcDbPolyline
90
4
70
1
43
0.0
10
25.000000000000004
20
185
10
25.000000000000004
20
190
10
30.000000000000004
20
190
10
30.000000000000004
20
185
0
LWPOLYLINE
5
652
100
AcDbEntity
8
0
100
AcDbPolyline
90
4
70
1
43
0.0
10
38
20
181.25
10
38
20
193.75
10
31
20
193.75
10
31
20
181.25
0
LWPOLYLINE
5
653
100
AcDbEntity
8
0
100
AcDbPolyline
90
4
70
1
43
0.0
10
32
20
185
10
32
20
190
10
37
20
190
10
37
20
185
0
LWPOLYLINE
5
654
100
AcDbEntity
8
0
100
AcDbPolyline
90
4
70
1
43
0.0
10
45
20
181.25
10
45
20
193.75
10
38
20
193.75
10
38
20
181.25
0
LWPOLYLINE
5
655
100
AcDbEntity
8
0
100
AcDbPolyline
90
4
70
1
43
0.0
10
39
20
185
10
39
20
190
10
44
20
190
10
44
20
185
0
LWPOLYLINE
5
656
100
AcDbEntity
8
0
100
AcDbPolyline
90
4
70
1
43
0.0
10
52
20
181.25
10
52
20
193.75
10
45
20
193.75
10
45
20
181.25
0
LWPOLYLINE
5
657
100
AcDbEntity
8
0
100
AcDbPolyline
90
4
70
1
43
0.0
10
46.000000000000007
20
185
10
46.000000000000007
20
190
10
51.000000000000007
20
190
10
51.000000000000007
20
185
0
LWPOLYLINE
5
658
100
AcDbEntity
8
0
100
AcDbPolyline
90
4
70
1
43
0.0
10
59
20
181.25
10
59
20
193.75
10
52.000000000000014
20
193.75
10
52.000000000000014
20
181.25
0
LWPOLYLINE
5
659
100
AcDbEntity
8
0
100
AcDbPolyline
90
4
70
1
43
0.0
10
53.000000000000007
20
185
10
53.000000000000007
20
190
10
58.000000000000007
20
190
10
58.000000000000007
20
185
0
LWPOLYLINE
5
660
100
AcDbEntity
8
0
100
AcDbPolyline
90
4
70
1
43
0.0
10
66
20
181.25
10
66
20
193.75
10
59
20
193.75
10
59
20
181.25
0
LWPOLYLINE
5
661
100
AcDbEntity
8
0
100
AcDbPolyline
90
4
70
1
43
0.0
10
60.000000000000007
20
185
10
60.000000000000007
20
190
10
65.000000000000014
20
190
10
65.000000000000014
20
185
0
LWPOLYLINE
5
662
100
AcDbEntity
8
0
100
AcDbPolyline
90
4
70
1
43
0.0
10
73
20
181.25
10
73
20
193.75
10
66.000000000000014
20
193.75
10
66.000000000000014
20
181.25
0
LWPOLYLINE
5
663
100
AcDbEntity
8
0
100
AcDbPolyline
90
4
70
1
43
0.0
10
67.000000000000014
20
185
10
67.000000000000014
20
190
10
72.000000000000014
20
190
10
72.000000000000014
20
185
0
LWPOLYLINE
5
664
100
AcDbEntity
8
0
100
AcDbPolyline
90
4
70
1
43
0.0
10
80
20
181.25
10
80
20
193.75
10
73
20
193.75
10
73
20
181.25
0
LWPOLYLINE
5
665
100
AcDbEntity
8
0
100
AcDbPolyline
90
4
70
1
43
0.0
10
74
20
185
10
74
20
190
10
79
20
190
10
79
20
185
0
LWPOLYLINE
5
666
100
AcDbEntity
8
0
100
AcDbPolyline
90
4
70
1
43
0.0
10
87.000000000000014
20
181.25
10
87.000000000000014
20
193.75
10
80.000000000000014
20
193.75
10
80.000000000000014
20
181.25
0
LWPOLYLINE
5
667
100
AcDbEntity
8
0
100
AcDbPolyline
90
4
70
1
43
0.0
10
81.000000000000014
20
185
10
81.000000000000014
20
190
10
86.000000000000014
20
190
10
86.000000000000014
20
185
0
LWPOLYLINE
5
668
100
AcDbEntity
8
0
100
AcDbPolyline
90
4
70
1
43
0.0
10
94
20
181.25
10
94
20
193.75
10
87.000000000000014
20
193.75
10
87.000000000000014
20
181.25
0
LWPOLYLINE
5
669
100
AcDbEntity
8
0
100
AcDbPolyline
90
4
70
1
43
0.0
10
88
20
185
10
88
20
190
10
93
20
190
10
93
20
185
0
LWPOLYLINE
5
670
100
AcDbEntity
8
0
100
AcDbPolyline
90
4
70
1
43
0.0
10
101.00000000000001
20
181.25
10
101.00000000000001
20
193.75
10
94.000000000000028
20
193.75
10
94.000000000000028
20
181.25
0
LWPOLYLINE
5
671
100
AcDbEntity
8
0
100
AcDbPolyline
90
4
70
1
43
0.0
10
95.000000000000014
20
185
10
95.000000000000014
20
190
10
100.00000000000001
20
190
10
100.00000000000001
20
185
0
LWPOLYLINE
5
672
100
AcDbEntity
8
0
100
AcDbPolyline
90
4
70
1
43
0.0
10
108
20
181.25
10
108
20
193.75
10
101.00000000000001
20
193.75
10
101.00000000000001
20
181.25
0
LWPOLYLINE
5
673
100
AcDbEntity
8
0
100
AcDbPolyline
90
4
70
1
43
0.0
10
102.00000000000001
20
185
10
102.00000000000001
20
190
10
107.00000000000001
20
190
10
107.00000000000001
20
185
0
LWPOLYLINE
5
674
100
AcDbEntity
8
0
100
AcDbPolyline
90
4
70
1
43
0.0
10
115
20
181.25
10
115
20
193.75
10
108
20
193.75
10
108
20
181.25
0
LWPOLYLINE
5
675
100
AcDbEntity
8
0
100
AcDbPolyline
90
4
70
1
43
0.0
10
109
20
185
10
109
20
190
10
114
20
190
10
114
20
185
0
LWPOLYLINE
5
676
100
AcDbEntity
8
0
100
AcDbPolyline
90
4
70
1
43
0.0
10
122.00000000000001
20
181.25
10
122.00000000000001
20
193.75
10
115.00000000000001
20
193.75
10
115.00000000000001
20
181.25
0
LWPOLYLINE
5
677
100
AcDbEntity
8
0
100
AcDbPolyline
90
4
70
1
43
0.0
10
116.00000000000001
20
185
10
116.00000000000001
20
190
10
121.00000000000001
20
190
10
121.00000000000001
20
185
0
LWPOLYLINE
5
678
100
AcDbEntity
8
0
100
AcDbPolyline
90
4
70
1
43
0.0
10
129
20
181.25
10
129
20
193.75
10
122.00000000000001
20
193.75
10
122.00000000000001
20
181.25
0
LWPOLYLINE
5
679
100
AcDbEntity
8
0
100
AcDbPolyline
90
4
70
1
43
0.0
10
123
20
185
10
123
20
190
10
128
20
190
10
128
20
185
0
LWPOLYLINE
5
680
100
AcDbEntity
8
0
100
AcDbPolyline
90
4
70
1
43
0.0
10
136
20
181.25
10
136
20
193.75
10
129.00000000000003
20
193.75
10
129.00000000000003
20
181.25
0
LWPOLYLINE
5
681
100
AcDbEntity
8
0
100
AcDbPolyline
90
4
70
1
43
0.0
10
130.00000000000003
20
185
10
130.00000000000003
20
190
10
135.00000000000003
20
190
10
135.00000000000003
20
185
0
LWPOLYLINE
5
682
100
AcDbEntity
8
0
100
AcDbPolyline
90
4
70
1
43
0.0
10
143
20
181.25
10
143
20
193.75
10
136
20
193.75
10
136
20
181.25
0
LWPOLYLINE
5
683
100
AcDbEntity
8
0
100
AcDbPolyline
90
4
70
1
43
0.0
10
137
20
185
10
137
20
190
10
142
20
190
10
142
20
185
0
LWPOLYLINE
5
684
100
AcDbEntity
8
0
100
AcDbPolyline
90
4
70
1
43
0.0
10
150.00000000000003
20
181.25
10
150.00000000000003
20
193.75
10
143.00000000000003
20
193.75
10
143.00000000000003
20
181.25
0
LWPOLYLINE
5
685
100
AcDbEntity
8
0
100
AcDbPolyline
90
4
70
1
43
0.0
10
144.00000000000003
20
185
10
144.00000000000003
20
190
10
149.00000000000003
20
190
10
149.00000000000003
20
185
0
LWPOLYLINE
5
686
100
AcDbEntity
8
0
100
AcDbPolyline
90
4
70
1
43
0.0
10
157
20
181.25
10
157
20
193.75
10
150.00000000000003
20
193.75
10
150.00000000000003
20
181.25
0
LWPOLYLINE
5
687
100
AcDbEntity
8
0
100
AcDbPolyline
90
4
70
1
43
0.0
10
151
20
185
10
151
20
190
10
156
20
190
10
156
20
185
0
LWPOLYLINE
5
688
100
AcDbEntity
8
0
100
AcDbPolyline
90
4
70
1
43
0.0
10
164.00000000000003
20
181.25
10
164.00000000000003
20
193.75
10
157
20
193.75
10
157
20
181.25
0
LWPOLYLINE
5
689
100
AcDbEntity
8
0
100
AcDbPolyline
90
4
70
1
43
0.0
10
158
20
185
10
158
20
190
10
163
20
190
10
163
20
185
0
LWPOLYLINE
5
690
100
AcDbEntity
8
0
100
AcDbPolyline
90
4
70
1
43
0.0
10
171
20
181.25
10
171
20
193.75
10
164
20
193.75
10
164
20
181.25
0
LWPOLYLINE
5
691
100
AcDbEntity
8
0
100
AcDbPolyline
90
4
70
1
43
0.0
10
165
20
185
10
165
20
190
10
170
20
190
10
170
20
185
0
LWPOLYLINE
5
692
100
AcDbEntity
8
0
100
AcDbPolyline
90
4
70
1
43
0.0
10
178.00000000000006
20
181.25
10
178.00000000000006
20
193.75
10
171
20
193.75
10
171
20
181.25
0
LWPOLYLINE
5
693
100
AcDbEntity
8
0
100
AcDbPolyline
90
4
70
1
43
0.0
10
172.00000000000003
20
185
10
172.00000000000003
20
190
10
177.00000000000003
20
190
10
177.00000000000003
20
185
0
LWPOLYLINE
5
694
100
AcDbEntity
8
0
100
AcDbPolyline
90
4
70
1
43
0.0
10
185.00000000000003
20
181.25
10
185.00000000000003
20
193.75
10
178
20
193.75
10
178
20
181.25
0
LWPOLYLINE
5
695
100
AcDbEntity
8
0
100
AcDbPolyline
90
4
70
1
43
0.0
10
179.00000000000003
20
185
10
179.00000000000003
20
190
10
184.00000000000003
20
190
10
184.00000000000003
20
185
0
LWPOLYLINE
5
696
100
AcDbEntity
8
0
100
AcDbPolyline
90
4
70
1
43
0.0
10
192.00000000000003
20
181.25
10
192.00000000000003
20
193.75
10
185
20
193.75
10
185
20
181.25
0
LWPOLYLINE
5
697
100
AcDbEntity
8
0
100
AcDbPolyline
90
4
70
1
43
0.0
10
186
20
185
10
186
20
190
10
191
20
190
10
191
20
185
0
LWPOLYLINE
5
698
100
AcDbEntity
8
0
100
AcDbPolyline
90
4
70
1
43
0.0
10
199.00000000000003
20
181.25
10
199.00000000000003
20
193.75
10
192
20
193.75
10
192
20
181.25
0
LWPOLYLINE
5
699
100
AcDbEntity
8
0
100
AcDbPolyline
90
4
70
1
43
0.0
10
193
20
185
10
193
20
190
10
198
20
190
10
198
20
185
0
ENDSEC
0
SECTION
2
OBJECTS
0
DICTIONARY
5
C
100
AcDbDictionary
3
ACAD_GROUP
350
D
3
ACAD_MLINESTYLE
350
17
0
DICTIONARY
5
D
100
AcDbDictionary
0
DICTIONARY
5
1A
330
C
100
AcDbDictionary
0
DICTIONARY
5
17
100
AcDbDictionary
0
ENDSEC
0
EOF
